<svg width="442" height="427" viewBox="0 0 442 427" fill="none" xmlns="http://www.w3.org/2000/svg">
<path d="M359.169 69.5248L436.946 69.4058C436.946 69.4058 433.072 64.3768 428.807 63.7538C428.807 63.7538 420.478 39.0818 406.596 38.9268C393.69 38.7828 388.54 54.1358 388.54 54.1358C388.54 54.1358 382.551 47.2628 376.843 50.4188C371.135 53.5748 367.915 62.5888 367.915 62.5888C367.915 62.5888 361.495 66.0588 359.169 69.5248Z" fill="#EBEBEB"/>
<path d="M193.676 83.4977L95.321 83.6487C95.321 83.6487 95.311 77.3627 108.86 76.1127C108.86 76.1127 121.189 48.6277 140.08 52.2877C151.846 54.5677 157.883 70.7077 157.883 70.7077C157.883 70.7077 166.751 57.9857 173.865 60.4347C180.979 62.8837 185.221 76.4047 185.221 76.4047C185.221 76.4047 192.56 79.9467 193.676 83.4977Z" fill="#EBEBEB"/>
<path d="M341.573 155.422L274.695 155.525C274.695 155.525 280.997 149.641 283.802 149.637C286.607 149.633 294.764 129.899 305.226 130.723C315.688 131.546 321.261 146.223 321.261 146.223C321.261 146.223 333.97 142.217 341.573 155.422Z" fill="#EBEBEB"/>
<path d="M62.246 136.964L5.05396 137.052C5.05396 137.052 7.89096 133.345 11.026 132.878C11.026 132.878 17.095 114.717 27.303 114.572C36.793 114.437 40.615 125.715 40.615 125.715C40.615 125.715 45.003 120.648 49.207 122.955C53.411 125.262 55.8 131.884 55.8 131.884C55.8 131.884 60.528 134.421 62.246 136.964Z" fill="#EBEBEB"/>
<path d="M0.429932 386.96L55.5719 386.717L110.715 386.629L221 386.461L331.285 386.628L386.428 386.716L441.57 386.96L386.428 387.205L331.285 387.293L221 387.459L110.715 387.292L55.5719 387.203L0.429932 386.96Z" fill="#263238"/>
<path d="M251.468 426.834C352.525 426.834 434.448 418.877 434.448 409.062C434.448 399.247 352.525 391.29 251.468 391.29C150.411 391.29 68.488 399.247 68.488 409.062C68.488 418.877 150.411 426.834 251.468 426.834Z" fill="#EBEBEB"/>
<g opacity="0.3">
<path d="M111.533 43.9319C111.533 67.1399 92.719 85.9539 69.511 85.9539C46.303 85.9539 26.436 67.1399 26.436 43.9319C26.436 20.7239 46.303 0.856934 69.511 0.856934C92.719 0.855934 111.533 20.7229 111.533 43.9319Z" fill="#5D53EA"/>
</g>
<g opacity="0.3">
<path d="M68.5529 78.2521C49.5459 78.2521 34.1379 62.8441 34.1379 43.8371C34.1379 24.8301 49.5459 8.55908 68.5529 8.55908C87.5599 8.55908 103.831 24.8301 103.831 43.8371C103.831 62.8431 87.5599 78.2521 68.5529 78.2521Z" fill="#5D53EA"/>
</g>
<path d="M69.428 73.2021C85.6392 73.2021 98.781 60.0603 98.781 43.8491C98.781 27.6379 85.6392 14.4961 69.428 14.4961C53.2167 14.4961 40.075 27.6379 40.075 43.8491C40.075 60.0603 53.2167 73.2021 69.428 73.2021Z" fill="#5D53EA"/>
<path d="M154.351 355.879L149.923 406.086H268.896C268.896 406.086 255.611 305.711 255.611 304.826C255.611 303.94 279.819 273.237 274.505 207.994C267.89 126.782 211.033 98.7632 153.76 98.7632C96.4871 98.7632 56.3381 151.668 50.7281 189.426L29.7671 274.419L57.2221 278.257C57.2221 278.257 58.4031 335.825 73.1641 350.586C87.9271 365.345 154.351 355.879 154.351 355.879Z" fill="white"/>
<path opacity="0.41" d="M154.351 355.879L149.923 406.086H268.896C268.896 406.086 255.611 305.711 255.611 304.826C255.611 303.94 279.819 273.237 274.505 207.994C267.89 126.782 211.033 98.7632 153.76 98.7632C96.4871 98.7632 56.3381 151.668 50.7281 189.426L29.7671 274.419L57.2221 278.257C57.2221 278.257 58.4031 335.825 73.1641 350.586C87.9271 365.345 154.351 355.879 154.351 355.879Z" fill="#5D53EA"/>
<path d="M257.747 210.268C255.554 220.351 242.187 225.261 242.187 225.261C241.366 227.08 245.923 262.625 247.192 264.663C248.465 266.697 240.945 271.929 239.947 270.764C238.95 269.595 230.17 246.462 211.883 242.296L211.879 242.305C211.647 242.606 204.135 252.224 189.671 252.577C174.975 252.938 164.269 242.421 164.269 242.421C164.269 242.421 153.902 257.719 132.163 253.768C110.42 249.817 105.806 232.665 105.806 232.665C105.806 232.665 77.725 241.157 66.928 218.188C58.673 200.624 67.732 187.819 72.406 182.806C73.752 181.361 74.732 180.562 74.831 180.484L74.835 180.48C74.839 180.476 74.839 180.476 74.839 180.476C74.839 180.476 72.522 159.167 85.691 148.001C98.861 136.835 116.244 138.172 116.244 138.172C116.244 138.172 123.239 116.6 143.375 112.404C163.51 108.212 175.696 119.873 175.696 119.873C175.696 119.873 192.77 110.951 213.675 119.667C234.58 128.382 233.939 149.146 233.939 149.146C233.939 149.146 249.138 154.134 254.178 166.555C259.217 178.977 250.979 191.416 250.979 191.416C250.979 191.416 259.945 200.19 257.747 210.268Z" fill="#5D53EA"/>
<g opacity="0.1">
<path d="M211.883 242.296L211.879 242.305C211.647 242.606 204.135 252.224 189.671 252.577C174.975 252.938 164.269 242.421 164.269 242.421C164.269 242.421 153.902 257.719 132.163 253.768C110.42 249.817 105.806 232.665 105.806 232.665C105.806 232.665 77.725 241.157 66.928 218.188C58.673 200.624 67.732 187.819 72.406 182.806L74.831 180.484L74.835 180.48C74.706 180.837 67.018 202.262 80.661 215.673C94.42 229.191 113.988 220.342 113.988 220.342C113.988 220.342 116.512 241.537 133.405 246.389C152.178 251.782 164.354 237.506 164.354 237.506C164.354 237.506 186.308 261.421 211.883 242.296Z" fill="black"/>
</g>
<path opacity="0.1" d="M239.947 270.765C238.95 269.596 230.17 246.463 211.883 242.297C211.883 242.297 226.85 233.491 233.794 239.657C240.734 245.818 239.947 270.765 239.947 270.765Z" fill="#222221"/>
<path d="M219.996 103.536C221.071 102.935 222.818 102.077 224.084 102.324C225.065 102.515 225.313 103.614 224.957 104.43C224.43 105.638 223.028 106.743 221.889 107.347C221.205 107.71 220.486 107.86 219.756 107.963C218.971 108.227 218.011 108.451 217.254 108.36C217.201 108.374 217.147 108.384 217.094 108.399C216.961 108.438 216.874 108.364 216.846 108.266C216.798 108.25 216.743 108.243 216.698 108.222C214.648 107.292 219.216 103.973 219.996 103.536Z" fill="#5D53EA"/>
<path opacity="0.3" d="M219.822 104.256C220.897 103.655 222.644 102.797 223.91 103.044C224.891 103.235 225.139 104.334 224.783 105.15C224.256 106.358 222.854 107.463 221.715 108.067C221.031 108.43 220.312 108.58 219.582 108.683C218.797 108.947 217.837 109.171 217.08 109.08C217.027 109.094 216.973 109.104 216.92 109.119C216.787 109.158 216.7 109.084 216.672 108.986C216.624 108.97 216.569 108.963 216.524 108.942C214.474 108.012 219.042 104.693 219.822 104.256Z" fill="#222221"/>
<path d="M198.086 107.701C197.588 109.042 196.783 111.353 197.753 112.688C197.878 112.859 198.053 112.952 198.274 112.906C198.879 112.774 199.316 112.314 199.665 111.837C200.917 110.65 201.926 108.87 202.441 107.44C202.863 106.293 202.253 104.571 200.783 104.583C199.286 104.595 198.504 106.567 198.086 107.701Z" fill="#5D53EA"/>
<path opacity="0.3" d="M197.789 109.118C197.291 110.459 196.486 112.77 197.456 114.105C197.581 114.276 197.756 114.369 197.977 114.323C198.582 114.191 199.019 113.731 199.368 113.254C200.62 112.067 201.629 110.287 202.144 108.857C202.566 107.71 201.956 105.988 200.486 106C198.989 106.012 198.207 107.984 197.789 109.118Z" fill="#222221"/>
<path d="M186.991 118.815C187.346 119.935 188.56 121.295 189.313 119.609C189.363 119.508 189.356 119.405 189.321 119.324C190.345 117.333 191.289 115.169 190.321 112.929C189.687 111.473 188.15 111.416 187.118 112.564C185.65 114.185 186.407 116.977 186.991 118.815Z" fill="#5D53EA"/>
<path opacity="0.3" d="M186.723 120.051C187.078 121.171 188.292 122.531 189.045 120.845C189.095 120.744 189.088 120.641 189.053 120.56C190.077 118.569 191.021 116.405 190.053 114.165C189.419 112.709 187.882 112.652 186.85 113.8C185.382 115.421 186.139 118.213 186.723 120.051Z" fill="#222221"/>
<path d="M217.81 108.373C216.084 109.599 212.615 110.326 211.489 110.534C211.062 110.825 204.014 114.312 201.426 116.456C199.709 117.882 198.138 119.499 196.703 121.224C199.655 119.344 202.824 117.736 206.103 116.528C209.118 115.411 212.597 114.948 215.639 116.265C215.639 116.374 211.697 118.109 210.008 118.99C208.455 119.807 207.011 120.861 205.394 121.542C202.515 122.777 198.946 122.895 195.885 122.432C195.84 122.423 195.812 122.405 195.776 122.378C193.769 125.012 192.034 127.882 190.926 130.997C188.065 139.044 188.229 147.127 189.355 154.711C189.264 154.575 189.155 154.448 189.046 154.311C188.728 153.902 188.374 153.503 188.011 153.13C187.684 150.76 187.484 148.389 187.448 146.019C187.439 145.983 187.439 145.946 187.421 145.91C184.751 144.357 182.544 142.413 181.245 139.534C179.792 136.31 178.148 129.208 178.221 129.253C181.418 130.915 184.143 134.039 185.523 137.345C186.313 139.225 187.013 141.268 187.485 143.348C187.53 142.222 187.603 141.096 187.73 139.979C187.349 136.01 187.285 131.95 187.548 128.018C187.666 126.265 187.893 124.53 188.211 122.805C187.948 121.752 187.312 120.58 187.285 119.454C187.267 119.054 187.33 118.664 187.512 118.292C187.884 117.502 188.711 116.93 189.583 117.257C189.737 117.312 189.828 117.43 189.837 117.593C189.855 117.802 189.864 118.02 189.855 118.238C189.81 119.7 189.138 121.335 188.856 122.715C188.411 124.995 188.175 127.302 188.066 129.618C187.966 132.07 188.066 134.504 188.193 136.938C188.565 135.076 189.074 133.251 189.719 131.498C190.355 127.983 191.417 124.505 193.025 121.353C194.024 119.4 195.123 117.502 196.34 115.668C196.503 114.805 196.776 112.943 197.348 111.617C197.711 110.736 198.22 110.082 198.91 110.118C200 110.173 200.027 110.926 199.664 111.835C199.664 111.835 199.664 111.835 199.655 111.844C199.128 113.143 197.793 114.75 197.602 115.032C195.549 118.111 193.524 121.362 192.198 124.832C191.807 125.876 191.49 126.939 191.217 128.011C193.687 123.043 197.311 118.665 201.898 115.287C204.877 113.08 208.228 111.545 211.516 109.892C213.006 108.793 214.404 107.621 215.866 106.423C216.32 106.051 216.938 105.497 217.528 105.46C217.837 105.433 218.136 105.551 218.409 105.887C219.191 106.865 218.764 107.691 217.81 108.373Z" fill="white"/>
<g opacity="0.1">
<path d="M164.995 149.945C167.591 148.749 170.44 148.106 173.33 147.91C174.778 147.782 176.241 147.876 177.698 148.033C179.158 148.206 180.588 148.605 181.992 149.081C183.365 149.668 184.715 150.34 185.885 151.255C187.046 152.17 188.15 153.159 189.05 154.312C190.894 156.568 192.297 159.154 193.051 161.912C191.605 159.463 189.925 157.215 187.998 155.262C186.067 153.319 183.832 151.731 181.348 150.778C178.831 149.834 176.111 149.404 173.356 149.321C170.597 149.249 167.801 149.471 164.995 149.945Z" fill="#222221"/>
<path d="M210.259 158.364C208.705 157.471 207.135 156.773 205.524 156.255C203.914 155.749 202.276 155.406 200.617 155.33C200.205 155.266 199.788 155.314 199.373 155.302C198.957 155.29 198.541 155.288 198.126 155.339L196.871 155.428C196.459 155.51 196.043 155.577 195.622 155.637L194.99 155.732L194.369 155.886L193.107 156.178C192.264 156.39 191.445 156.692 190.553 156.886C191.254 156.337 191.991 155.807 192.773 155.351C193.589 154.978 194.383 154.49 195.272 154.263C195.707 154.12 196.146 153.982 196.59 153.861L197.955 153.627C198.41 153.532 198.874 153.523 199.338 153.508C199.802 153.51 200.267 153.456 200.73 153.517C202.591 153.601 204.415 154.139 206.061 154.949C207.702 155.764 209.198 156.9 210.259 158.364Z" fill="#222221"/>
</g>
<path d="M248.042 156.627C245.136 158.285 242.118 159.763 239.023 161.011C237.756 161.524 236.079 162.42 234.468 162.779C233.54 162.986 232.634 163.011 231.851 162.681C231.469 162.633 231.057 162.415 230.652 161.948C230.579 161.858 230.539 161.761 230.527 161.666C229.218 160.479 228.822 158.584 228.42 156.823C227.604 153.322 227.148 149.731 227.071 146.127C227.044 144.814 226.802 143.097 227.404 141.864C227.778 141.117 228.23 141.042 228.818 140.619C230.192 139.631 230.239 138.336 231.238 137.096C231.753 136.467 232.501 135.849 233.383 136.033C235.486 136.45 235.264 140.537 235.383 142.024C235.646 145.109 235.648 148.216 235.389 151.302C235.161 153.974 234.849 156.903 234.116 159.573C236.886 155.316 240.424 151.49 244.259 148.235C245.659 147.046 247.898 145.095 249.915 145.805C250.732 146.092 250.64 146.715 251.172 147.154C252.299 148.08 253.513 147.128 254.689 147.716C259.065 149.91 249.56 155.766 248.042 156.627Z" fill="#5D53EA"/>
<path opacity="0.3" d="M248.042 156.627C245.136 158.285 242.118 159.763 239.023 161.011C237.756 161.524 236.079 162.42 234.468 162.779C233.54 162.986 232.634 163.011 231.851 162.681C231.469 162.633 231.057 162.415 230.652 161.948C230.579 161.858 230.539 161.761 230.527 161.666C229.218 160.479 228.822 158.584 228.42 156.823C227.604 153.322 227.148 149.731 227.071 146.127C227.044 144.814 226.802 143.097 227.404 141.864C227.778 141.117 228.23 141.042 228.818 140.619C230.192 139.631 230.239 138.336 231.238 137.096C231.753 136.467 232.501 135.849 233.383 136.033C235.486 136.45 235.264 140.537 235.383 142.024C235.646 145.109 235.648 148.216 235.389 151.302C235.161 153.974 234.849 156.903 234.116 159.573C236.886 155.316 240.424 151.49 244.259 148.235C245.659 147.046 247.898 145.095 249.915 145.805C250.732 146.092 250.64 146.715 251.172 147.154C252.299 148.08 253.513 147.128 254.689 147.716C259.065 149.91 249.56 155.766 248.042 156.627Z" fill="#222221"/>
<path d="M246.321 138.703C243.184 145.041 239.663 151.173 236.629 157.565C236.552 157.719 236.281 157.601 236.347 157.441C238.708 151.588 241.893 146.13 244.773 140.528C246.239 137.689 247.502 134.929 248.228 131.815C248.705 129.747 248.829 127.828 250.269 126.232C250.498 125.978 250.974 125.924 251.157 126.364C252.002 128.407 249.614 131.272 248.346 133.177C247.843 135.073 247.227 136.882 246.321 138.703Z" fill="white"/>
<path d="M233.892 137.835C231.621 143.656 231.114 149.987 230.372 156.129C230.356 156.276 230.142 156.277 230.148 156.124C230.207 147.945 232.174 138.856 236.472 131.827C236.847 131.204 239.372 127.344 240.388 128.626C240.931 129.316 239.735 130.426 239.346 130.821C238.086 132.135 236.537 133.05 235.402 134.502C235.387 134.515 235.371 134.519 235.354 134.523C234.785 135.651 234.302 136.792 233.892 137.835Z" fill="white"/>
<path d="M256.814 139.848C256.362 142.605 255.008 145.29 253.55 147.637C250.346 152.743 245.769 156.809 240.92 160.303C240.807 160.386 240.668 160.189 240.772 160.109C245.402 156.386 249.97 152.492 253.161 147.407C253.991 146.088 254.724 144.704 255.317 143.258C255.362 143.157 255.412 143.037 255.461 142.917C255.438 142.896 255.423 142.873 255.431 142.836C255.69 141.03 255.638 139.508 255.513 137.702C255.451 136.906 255.386 136.235 255.839 135.566C255.878 135.511 255.935 135.488 256 135.498C257.451 135.866 256.981 138.833 256.814 139.848Z" fill="white"/>
<path d="M253.922 159.316C247.762 162.737 240.391 163.872 233.881 166.517C232.397 167.116 230.937 167.79 229.491 168.487C229.096 168.672 228.619 168.971 228.124 169.142C227.811 169.249 227.502 169.294 227.199 169.232C227.072 169.214 226.948 169.168 226.829 169.104C226.354 168.847 226.192 168.439 226.091 167.939C225.898 167.07 226.086 165.992 226.215 164.969C226.125 163.912 225.945 162.846 225.843 161.905C225.698 160.532 225.52 159.167 225.305 157.799C224.842 154.895 224.112 152.062 223.387 149.211C222.767 146.797 222.234 144.33 222.355 141.828C222.414 140.502 222.592 138.024 223.774 137.151C224.834 136.373 225.594 137.083 226.013 138.066C226.415 139.008 226.396 140.052 226.71 140.994C227.192 142.422 228.04 142.56 228.979 143.454C230.237 144.664 230.506 146.478 230.426 148.134C230.354 149.48 230.195 150.835 230.018 152.184C230.416 150.966 230.871 149.772 231.33 148.595C232.157 146.488 232.984 143.862 234.556 142.169C235.084 141.595 235.659 141.17 236.386 140.883C238.009 140.229 239.145 139.876 240.355 138.53C241.444 137.332 242.841 135.163 244.75 135.448C246.669 135.74 246.457 137.66 246.578 139.091C246.806 141.752 248.983 143.19 248.492 146.084C248.094 148.439 246.442 150.474 244.981 152.277C243.844 153.679 242.632 155.052 241.297 156.3C243.056 155.231 244.972 154.412 246.949 153.854C247.782 153.615 248.745 153.359 249.621 153.597C250.906 153.937 250.984 154.759 252.623 154.578C253.838 154.439 256.513 153.537 257.17 155.265C257.842 157.07 255.134 158.639 253.922 159.316Z" fill="#5D53EA"/>
<path opacity="0.1" d="M252.584 160.894C246.424 164.315 239.053 165.45 232.543 168.095C231.059 168.694 229.599 169.368 228.153 170.065C227.758 170.25 227.281 170.549 226.786 170.72C226.473 170.827 226.164 170.872 225.861 170.81C225.734 170.792 225.61 170.746 225.491 170.682C225.016 170.425 224.854 170.017 224.753 169.517C224.56 168.648 224.748 167.57 224.877 166.547C224.787 165.49 224.607 164.424 224.505 163.483C224.36 162.11 224.182 160.745 223.967 159.377C223.504 156.473 222.774 153.64 222.049 150.789C221.429 148.375 220.896 145.908 221.017 143.406C221.076 142.08 221.254 139.602 222.436 138.729C223.496 137.951 224.256 138.661 224.675 139.644C225.077 140.586 225.058 141.63 225.372 142.572C225.854 144 226.702 144.138 227.641 145.032C228.899 146.242 229.168 148.056 229.088 149.712C229.016 151.058 228.857 152.413 228.68 153.762C229.078 152.544 229.533 151.35 229.992 150.173C230.819 148.066 231.646 145.44 233.218 143.747C233.746 143.173 234.321 142.748 235.048 142.461C236.671 141.807 237.807 141.454 239.017 140.108C240.106 138.91 241.503 136.741 243.412 137.026C245.331 137.318 245.119 139.238 245.24 140.669C245.468 143.33 247.645 144.768 247.154 147.662C246.756 150.017 245.104 152.052 243.643 153.855C242.506 155.257 241.294 156.63 239.959 157.878C241.718 156.809 243.634 155.99 245.611 155.432C246.444 155.193 247.407 154.937 248.283 155.175C249.568 155.515 249.646 156.337 251.285 156.156C252.5 156.017 255.175 155.115 255.832 156.843C256.504 158.648 253.796 160.217 252.584 160.894Z" fill="#222221"/>
<path d="M225.556 149.091C225.509 149.1 225.524 149.173 225.571 149.164C225.617 149.154 225.603 149.081 225.556 149.091Z" fill="#F1D1C5"/>
<path d="M248.859 159.085C242.783 162.965 232.221 162.223 228.139 168.821C228.134 168.928 228.129 169.035 228.124 169.141C227.811 169.248 227.502 169.293 227.199 169.231C226.276 166.931 226.719 164.364 226.813 161.903C226.949 158.164 226.837 154.466 226.036 150.801C226.016 150.699 226.16 150.67 226.197 150.769C227.077 153.598 227.422 156.491 227.489 159.44C227.559 162.406 226.746 166.026 227.619 168.953C227.642 168.851 227.664 168.741 227.681 168.65C227.661 165.277 229.04 161.887 230.42 158.893C232.196 155.025 234.456 151.413 236.568 147.725C236.653 147.576 236.86 147.728 236.784 147.875C234.941 151.5 233.036 155.12 231.312 158.81C230.301 160.962 229.24 163.354 228.621 165.789C232.033 158.012 241.148 153.509 243.958 145.369C244.027 145.187 244.312 145.289 244.251 145.468C241.368 154.117 232.11 158.921 228.643 167.168C229.177 166.496 229.837 165.922 230.564 165.414C232.033 163.954 233.707 162.725 235.571 161.741C238.568 160.166 241.852 159.398 244.754 157.613C244.864 157.547 244.969 157.719 244.88 157.799C242.648 159.713 239.734 160.433 237.099 161.618C235.516 162.334 234.017 163.21 232.629 164.239C233.489 163.827 234.38 163.48 235.246 163.182C239.73 161.589 244.378 160.854 248.72 158.823C248.896 158.743 249.015 158.983 248.859 159.085Z" fill="white"/>
<path d="M225.142 144.393C224.914 145.384 225.081 146.191 225.306 147.155C225.326 147.24 225.455 147.214 225.438 147.128C225.273 146.275 225.365 145.311 225.397 144.445C225.403 144.303 225.176 144.242 225.142 144.393Z" fill="white"/>
<path d="M244.508 142.503C244.396 143.005 244.413 143.534 244.317 144.044C244.286 144.207 244.529 144.234 244.586 144.099C244.781 143.64 244.948 143.016 244.807 142.523C244.769 142.391 244.544 142.338 244.508 142.503Z" fill="white"/>
<path d="M251.232 157.203C250.989 157.354 250.704 157.482 250.489 157.668C250.417 157.73 250.457 157.867 250.557 157.868C250.88 157.871 251.181 157.686 251.417 157.474C251.552 157.353 251.396 157.101 251.232 157.203Z" fill="white"/>
<path d="M225.093 165.195C225.297 167.535 225.844 170.043 224.678 172.349C224.578 172.548 224.772 172.73 224.916 172.575C226.075 171.336 233.654 168.37 233.312 167.089C233.104 166.31 230.999 167.281 230.706 166.195C230.581 165.739 230.976 164.815 231.097 164.335C231.258 163.715 231.402 163.082 231.5 162.452C231.59 161.867 231.582 161.12 231.069 160.897C230.466 160.634 229.825 161.396 229.418 161.899C229.082 162.314 228.782 162.765 228.472 163.205C228.127 163.69 227.646 164.601 227.209 163.81C226.826 163.116 226.696 162.275 226.109 161.759C224.768 160.582 225.033 164.488 225.093 165.195Z" fill="white"/>
<path d="M222.321 196.114C222.032 195.435 221.704 194.766 221.345 194.11C221.056 193.57 220.734 193.051 220.382 192.544C220.413 192.115 220.446 191.677 220.486 191.249C220.715 188.83 221.025 186.419 221.442 184.03C221.55 183.357 221.676 182.687 221.812 182.011C222.107 180.458 222.446 178.915 222.83 177.38C223.409 175.06 224.109 172.876 225.208 170.874C225.582 170.171 226.005 169.497 226.489 168.844C226.626 168.668 226.755 168.49 226.901 168.316C227.047 168.142 227.195 167.958 227.353 167.777C227.474 167.635 227.603 167.503 227.733 167.363C227.756 167.34 227.769 167.324 227.792 167.301C227.946 167.137 228.189 167.353 228.052 167.529C227.929 167.68 227.815 167.833 227.69 167.993C227.613 168.098 227.535 168.212 227.456 168.326C227.326 168.513 227.202 168.71 227.072 168.897C227.025 168.989 226.972 169.071 226.927 169.155C226.359 170.087 225.91 171.072 225.527 172.097C224.163 175.778 223.805 179.94 223.33 183.717C223.092 185.587 222.9 187.457 222.745 189.325C222.723 189.478 222.709 189.642 222.705 189.799C222.522 191.902 222.394 194.007 222.321 196.114Z" fill="white"/>
<path d="M221.805 184.348C221.805 184.348 222.083 176.239 220.536 172.129C218.989 168.02 214.099 162.717 214.099 162.717C214.099 162.717 210.674 175.155 221.805 184.348Z" fill="white"/>
<path d="M222.524 189.855C222.524 189.855 225.465 182.293 228.507 179.126C231.549 175.959 238.133 173.013 238.133 173.013C238.133 173.013 236.378 185.795 222.524 189.855Z" fill="white"/>
<g opacity="0.1">
<path d="M194.276 183.592C197.563 182.756 201.041 182.698 204.442 183.171C207.839 183.682 211.195 184.812 214.165 186.643C215.614 187.595 217.054 188.629 218.252 189.915C219.437 191.2 220.527 192.581 221.348 194.113C223.008 197.149 224.017 200.532 224.061 203.925C223.267 200.646 221.916 197.577 220.137 194.85C218.321 192.134 215.986 189.866 213.211 188.188C212.525 187.761 211.809 187.376 211.094 186.995C210.351 186.67 209.631 186.288 208.862 186.018C207.365 185.367 205.771 184.976 204.183 184.56C200.973 183.853 197.651 183.504 194.276 183.592Z" fill="#222221"/>
<path d="M242.984 193.421C241.145 192.976 239.341 192.678 237.546 192.524C235.751 192.381 233.971 192.442 232.238 192.717C231.361 192.813 230.526 193.086 229.668 193.286C228.844 193.587 227.997 193.85 227.206 194.261C225.557 194.972 224.101 196.049 222.513 197.106C223.544 195.536 224.848 194.048 226.512 193.025C227.294 192.425 228.221 192.089 229.107 191.66C230.039 191.36 230.978 191.041 231.955 190.922C233.894 190.611 235.881 190.701 237.762 191.128C239.638 191.562 241.452 192.288 242.984 193.421Z" fill="#222221"/>
</g>
<path d="M77.9771 139.273C81.7961 142.389 86.6671 143.641 91.2951 145.03C92.5861 145.416 93.8621 145.831 95.1321 146.284C96.0101 146.595 96.9911 146.919 97.9311 146.721C99.5861 146.378 99.7481 144.893 99.7731 143.45C99.8161 142.996 99.8201 142.532 99.8031 142.069C99.8081 141.964 99.8201 141.858 99.8321 141.76C99.8391 141.684 99.8191 141.627 99.7771 141.588C99.7441 141.031 99.6891 140.483 99.6461 139.959C99.4121 136.98 99.1421 134.004 98.8841 131.025C98.6761 128.628 98.5861 126.159 97.9691 123.821C97.7491 122.992 97.5111 121.876 96.6741 121.45C96.2061 121.209 95.6581 121.213 95.1751 121.022C94.7321 120.846 94.3651 120.545 94.0371 120.202C93.2211 119.345 91.7581 116.74 90.2341 117.573C89.4541 117.999 89.2821 119.001 89.0601 119.777C88.7391 120.903 87.9431 121.533 87.2551 122.423C86.1031 123.918 86.3961 125.849 87.0251 127.497C87.8591 129.671 89.1381 131.664 90.4971 133.542C91.8941 135.479 93.4151 137.324 94.8231 139.254C95.6011 140.32 96.3411 141.409 97.0051 142.55C97.3291 143.108 97.6341 143.675 97.9141 144.253C98.1011 144.645 98.3301 145.065 98.4231 145.504C96.7921 143.335 94.8171 141.473 92.9191 139.54C90.9131 137.5 89.1471 135.175 86.8611 133.429C85.1371 132.117 83.1261 131.232 80.9361 131.216C79.6811 131.203 78.5441 131.199 77.3391 130.784C76.2941 130.423 75.2651 129.909 74.1581 129.752C71.7511 129.408 72.9561 132.248 73.4701 133.401C74.4831 135.674 76.0461 137.698 77.9771 139.273Z" fill="#5D53EA"/>
<path opacity="0.3" d="M79.2666 140.862C83.0856 143.978 87.9566 145.23 92.5846 146.619C93.8756 147.005 95.1516 147.42 96.4216 147.873C97.2996 148.184 98.2806 148.508 99.2206 148.31C100.876 147.967 101.038 146.482 101.063 145.039C101.106 144.585 101.11 144.121 101.093 143.658C101.098 143.553 101.11 143.447 101.122 143.349C101.129 143.273 101.109 143.216 101.067 143.177C101.034 142.62 100.979 142.072 100.936 141.548C100.702 138.569 100.432 135.593 100.174 132.614C99.9656 130.217 99.8756 127.748 99.2586 125.41C99.0386 124.581 98.8006 123.465 97.9636 123.039C97.4956 122.798 96.9476 122.802 96.4646 122.611C96.0216 122.435 95.6546 122.134 95.3266 121.791C94.5106 120.934 93.0476 118.329 91.5236 119.162C90.7436 119.588 90.5716 120.59 90.3496 121.366C90.0286 122.492 89.2326 123.122 88.5446 124.012C87.3926 125.507 87.6856 127.438 88.3146 129.086C89.1486 131.26 90.4276 133.253 91.7866 135.131C93.1836 137.068 94.7046 138.913 96.1126 140.843C96.8906 141.909 97.6306 142.998 98.2946 144.139C98.6186 144.697 98.9236 145.264 99.2036 145.842C99.3906 146.234 99.6196 146.654 99.7126 147.093C98.0816 144.924 96.1066 143.062 94.2086 141.129C92.2026 139.089 90.4366 136.764 88.1506 135.018C86.4266 133.706 84.4156 132.821 82.2256 132.805C80.9706 132.792 79.8336 132.788 78.6286 132.373C77.5836 132.012 76.5546 131.498 75.4476 131.341C73.0406 130.997 74.2456 133.837 74.7596 134.99C75.7726 137.263 77.3356 139.287 79.2666 140.862Z" fill="#222221"/>
<path d="M97.1059 143.081C97.5969 139.805 97.5799 136.498 97.0949 133.196C96.1699 126.882 93.6269 120.877 90.5459 115.316C89.8849 114.118 89.1709 112.909 88.1869 111.955C87.7669 111.546 86.8269 111.108 86.8579 112.088C86.8829 113.001 87.7359 113.843 88.3769 114.393C89.2029 115.104 90.1269 115.696 90.8099 116.54C91.3359 117.523 91.8469 118.517 92.3289 119.523C93.5449 122.049 94.6029 124.656 95.4419 127.332C97.0269 132.405 97.7779 137.831 97.0379 143.073C97.0309 143.117 97.1029 143.127 97.1059 143.081Z" fill="white"/>
<path d="M96.412 144.535C93.134 144.059 89.972 143.087 86.951 141.669C81.173 138.959 76.159 134.791 71.725 130.234C70.769 129.255 69.818 128.222 69.188 127.004C68.918 126.484 68.77 125.458 69.699 125.77C70.566 126.058 71.126 127.118 71.468 127.89C71.911 128.886 72.21 129.942 72.821 130.839C73.61 131.627 74.414 132.403 75.238 133.155C77.305 135.049 79.496 136.815 81.815 138.391C86.214 141.374 91.192 143.66 96.423 144.466C96.469 144.474 96.458 144.546 96.412 144.535Z" fill="white"/>
<path d="M80.036 122.622C81.757 124.909 83.539 127.155 85.377 129.354C89.036 133.741 92.959 137.822 97.047 141.805C97.083 141.839 97.13 141.778 97.094 141.744C93.089 137.751 89.298 133.471 85.675 129.128C83.873 126.964 82.119 124.755 80.423 122.506C80.076 122.041 79.732 121.576 79.392 121.105C78.818 119.606 78.406 118.228 77.707 116.782C77.373 116.098 76.556 114.516 75.79 115.078C74.774 115.823 78.323 120.348 80.036 122.622Z" fill="white"/>
<path d="M72.32 139.061C73.335 140.739 74.857 142.19 76.369 143.393C79.732 146.061 83.774 147.73 87.83 148.839C91.817 149.928 95.973 150.421 100.015 149.728C100.062 149.72 100.109 149.713 100.156 149.705C100.187 149.724 100.232 149.713 100.258 149.685C100.329 149.671 100.544 149.62 100.572 149.594C100.585 149.587 100.959 149.524 100.868 149.477C100.858 149.458 101.086 149.197 101.418 148.809C102.013 148.11 102.938 147 103.358 146.198C103.983 145.001 104.335 143.672 104.529 142.321C104.976 139.234 104.567 136.076 104.907 132.975C105.204 130.284 106.223 127.703 106.127 124.954C106.106 124.349 106.034 123.375 105.194 123.536C104.117 123.746 103.976 125.232 103.274 125.854C103.217 126.009 103.094 126.06 102.906 126.002C102.666 126.121 102.513 126.047 102.444 125.779C102.351 125.677 102.252 125.39 102.204 125.281C102.043 124.918 101.91 124.543 101.786 124.167C101.574 123.506 101.402 122.83 101.224 122.161C100.933 121.085 100.671 119.6 99.881 118.754C99.303 118.13 98.519 118.25 98.141 118.978C97.632 119.953 97.743 121.348 97.731 122.425C97.72 123.238 97.565 124.419 96.464 124.183C96.012 124.086 95.604 123.824 95.148 123.732C94.29 123.56 93.549 124.078 93.222 124.863C92.747 125.996 93.146 127.45 93.395 128.612C93.715 130.104 94.157 131.569 94.665 133.01C95.633 135.751 97.863 140.929 99 143.604C99.619 145.067 92.658 129.9 89.958 126.837C89.398 126.203 88.429 125.888 87.555 125.82C86.971 125.776 86.429 126.047 85.849 126.036C85.256 126.026 84.687 125.782 84.146 125.539C82.708 124.899 80.252 124.141 79.849 126.373C79.663 127.401 80.131 128.385 80.148 129.41C80.166 130.41 79.56 131.224 79.215 132.107C78.38 134.242 80.374 136.101 81.763 137.533C83.481 139.304 85.39 140.884 87.38 142.314C88.623 143.208 93.371 146.328 94.675 147.113C93.018 146.269 87.912 143.1 86.3 142.168C85.246 141.556 84.205 140.922 83.179 140.255C82.246 139.652 81.356 138.937 80.377 138.408C79.51 137.939 78.793 137.935 77.845 137.953C76.683 137.972 75.483 137.495 74.33 137.304C73.711 137.202 72.56 136.811 72.111 137.438C71.767 137.913 72.045 138.607 72.32 139.061Z" fill="#5D53EA"/>
<path opacity="0.09" d="M73.3688 140.71C74.3838 142.388 75.9058 143.839 77.4178 145.042C80.7808 147.71 84.8228 149.379 88.8788 150.488C92.8658 151.577 97.0218 152.07 101.064 151.377C101.111 151.369 101.158 151.362 101.205 151.354C101.236 151.373 101.281 151.362 101.307 151.334C101.378 151.32 101.593 151.269 101.621 151.243C101.634 151.236 102.008 151.173 101.917 151.126C101.907 151.107 102.135 150.846 102.467 150.458C103.062 149.759 103.987 148.649 104.407 147.847C105.032 146.65 105.384 145.321 105.578 143.97C106.025 140.883 105.616 137.725 105.956 134.624C106.253 131.933 107.272 129.352 107.176 126.603C107.155 125.998 107.083 125.024 106.243 125.185C105.166 125.395 105.025 126.881 104.323 127.503C104.266 127.658 104.143 127.709 103.955 127.651C103.715 127.77 103.562 127.696 103.493 127.428C103.4 127.326 103.301 127.039 103.253 126.93C103.092 126.567 102.959 126.192 102.835 125.816C102.623 125.155 102.451 124.479 102.273 123.81C101.982 122.734 101.72 121.249 100.93 120.403C100.352 119.779 99.5678 119.899 99.1898 120.627C98.6808 121.602 98.7918 122.997 98.7798 124.074C98.7688 124.887 98.6138 126.068 97.5128 125.832C97.0608 125.735 96.6528 125.473 96.1968 125.381C95.3388 125.209 94.5978 125.727 94.2708 126.512C93.7958 127.645 94.1948 129.099 94.4438 130.261C94.7638 131.753 95.2058 133.218 95.7138 134.659C96.6818 137.4 98.9118 142.578 100.049 145.253C100.668 146.716 93.7068 131.549 91.0068 128.486C90.4468 127.852 89.4778 127.537 88.6038 127.469C88.0198 127.425 87.4778 127.696 86.8978 127.685C86.3048 127.675 85.7358 127.431 85.1948 127.188C83.7568 126.548 81.3008 125.79 80.8978 128.022C80.7118 129.05 81.1798 130.034 81.1968 131.059C81.2148 132.059 80.6088 132.873 80.2638 133.756C79.4288 135.891 81.4228 137.75 82.8118 139.182C84.5298 140.953 86.4388 142.533 88.4288 143.963C89.6718 144.857 94.4198 147.977 95.7238 148.762C94.0668 147.918 88.9608 144.749 87.3488 143.817C86.2948 143.205 85.2538 142.571 84.2278 141.904C83.2948 141.301 82.4048 140.586 81.4258 140.057C80.5588 139.588 79.8418 139.584 78.8938 139.602C77.7318 139.621 76.5318 139.144 75.3788 138.953C74.7598 138.851 73.6088 138.46 73.1598 139.087C72.8158 139.562 73.0938 140.256 73.3688 140.71Z" fill="#222221"/>
<path d="M80.1249 143.926C86.1159 147.667 92.7709 149.439 99.6809 149.757C99.7219 149.756 99.7469 149.739 99.7629 149.713C99.8469 149.717 99.9289 149.723 100.013 149.727C100.06 149.719 100.107 149.712 100.154 149.704C100.185 149.723 100.23 149.712 100.256 149.684C100.327 149.67 100.542 149.619 100.57 149.593C100.583 149.586 100.957 149.523 100.866 149.476C100.856 149.457 101.084 149.196 101.416 148.808C102.596 146.442 103.489 143.742 103.357 141.079C103.269 139.345 102.888 137.624 102.732 135.891C102.572 134.125 102.519 132.334 102.627 130.569C102.628 130.551 102.599 130.549 102.598 130.567C102.472 132.292 102.403 134.008 102.48 135.74C102.552 137.387 102.825 139.014 102.949 140.657C103.176 143.725 102.019 146.285 100.958 148.993C101.501 146.594 101.692 144.094 101.462 141.619C101.184 138.641 100.353 135.696 99.6379 132.795C99.6199 132.716 99.5109 132.743 99.5249 132.82C100.073 135.734 100.85 138.655 101.153 141.604C101.416 144.161 101.268 146.708 100.737 149.193C98.3399 146.286 96.4139 143.04 94.3229 139.915C92.2949 136.88 90.0689 134.012 87.6219 131.312C87.5819 131.27 87.5199 131.332 87.5569 131.375C90.0419 134.267 92.3159 137.347 94.3659 140.568C96.2399 143.513 98.0439 146.512 100.349 149.14C97.9149 147.404 95.5159 145.658 93.4779 143.425C91.3389 141.08 89.2719 138.647 87.2369 136.211C87.2139 136.188 87.1829 136.219 87.2009 136.245C89.2199 138.831 91.2249 141.454 93.4249 143.886C95.4899 146.168 97.9719 147.904 100.532 149.537C93.9169 149.297 87.8239 145.697 82.2669 142.204C82.2309 142.181 82.1969 142.238 82.2329 142.261C86.5799 145.03 91.0269 147.89 95.9399 149.123C93.7049 148.844 91.4879 148.493 89.2779 147.836C86.1109 146.893 83.0269 145.556 80.1629 143.856C80.1209 143.829 80.0819 143.896 80.1249 143.926Z" fill="white"/>
<path d="M99.4218 125.519C99.4328 125.429 99.5728 125.435 99.5618 125.526C99.3458 127.292 99.5728 129.025 99.5408 130.794C99.5388 130.906 99.3748 130.921 99.3488 130.81C98.9528 129.095 99.2048 127.224 99.4218 125.519Z" fill="white"/>
<path d="M84.0959 132.606C84.5249 132.979 85.0249 133.345 85.3849 133.789C85.4379 133.855 85.3679 133.964 85.2909 133.909C84.8229 133.575 84.4219 133.092 84.0189 132.682C83.9669 132.629 84.0429 132.56 84.0959 132.606Z" fill="white"/>
<path d="M80.2389 141.033C80.4739 141.19 80.7079 141.347 80.9429 141.505C81.0379 141.568 80.9429 141.72 80.8559 141.652L80.1849 141.125C80.1309 141.083 80.1799 140.994 80.2389 141.033Z" fill="white"/>
<path d="M97.4521 150.974C99.5431 151.742 101.982 152.254 103.221 154.303C103.329 154.479 103.598 154.37 103.554 154.171C103.208 152.568 105.267 144.192 103.984 143.989C103.204 143.866 102.756 146.252 101.666 146.084C101.207 146.014 100.667 145.262 100.337 144.951C99.9121 144.544 99.4661 144.148 98.9951 143.798C98.5571 143.473 97.9241 143.174 97.4281 143.567C96.8441 144.028 97.1001 144.947 97.2791 145.538C97.4261 146.026 97.6261 146.494 97.8091 146.968C98.0101 147.493 98.4871 148.321 97.5591 148.409C96.7461 148.485 95.9601 148.263 95.1731 148.606C93.3771 149.388 96.8221 150.74 97.4521 150.974Z" fill="white"/>
<path d="M119.529 178.599C119.502 178.59 119.474 178.581 119.447 178.581L118.021 178.372C117.758 178.354 117.494 178.336 117.231 178.336C116.859 177.391 116.45 176.465 116.014 175.548C115.778 175.048 115.533 174.549 115.278 174.049C114.442 172.414 113.525 170.825 112.562 169.29C109.42 164.277 106.096 159.509 103.344 154.377C102.472 152.76 101.655 151.098 100.919 149.391C100.865 149.273 100.819 149.155 100.765 149.037C100.565 148.546 100.356 148.047 100.166 147.538C100.121 147.42 100.311 147.338 100.366 147.456C100.521 147.828 100.684 148.192 100.857 148.555C100.902 148.655 100.948 148.755 100.993 148.846C100.993 148.864 101.002 148.873 101.011 148.882C101.047 148.973 101.093 149.064 101.138 149.145C101.846 150.634 102.655 152.06 103.527 153.459C105.907 157.301 108.758 160.888 111.465 164.557C111.665 164.83 111.865 165.102 112.055 165.374C113.79 167.754 115.443 170.178 116.841 172.74C117.867 174.612 118.775 176.583 119.529 178.599Z" fill="white"/>
<path d="M116.848 175.419C116.848 175.419 110.877 169.925 106.752 168.421C102.627 166.917 95.417 167.172 95.417 167.172C95.417 167.172 102.622 177.874 116.848 175.419Z" fill="white"/>
<path d="M111.654 165.821C111.654 165.821 110.249 157.83 111.208 153.545C112.167 149.26 116.27 143.327 116.27 143.327C116.27 143.327 121.395 155.167 111.654 165.821Z" fill="white"/>
<path d="M117.09 115.26C118.369 114.949 119.222 117.636 119.447 118.469C120.055 120.723 119.627 122.959 118.693 125.032C118.642 125.199 118.576 125.347 118.492 125.471C118.483 125.49 118.475 125.509 118.466 125.528C118.457 125.545 118.44 125.546 118.429 125.558C118.39 125.605 118.348 125.65 118.302 125.687C118.184 125.781 118.006 125.85 117.856 125.784C116.212 125.061 116.291 122.695 116.312 121.239C116.325 120.305 115.578 115.628 117.09 115.26Z" fill="#5D53EA"/>
<path opacity="0.2" d="M116.951 115.025C118.23 114.714 119.083 117.401 119.308 118.234C119.916 120.488 119.488 122.724 118.554 124.797C118.503 124.964 118.437 125.112 118.353 125.236C118.344 125.255 118.336 125.274 118.327 125.293C118.318 125.31 118.301 125.311 118.29 125.323C118.251 125.37 118.209 125.415 118.163 125.452C118.045 125.546 117.867 125.615 117.717 125.549C116.073 124.826 116.152 122.46 116.173 121.004C116.186 120.07 115.439 115.393 116.951 115.025Z" fill="#222221"/>
<path d="M108.553 129.542C107.768 131.728 109.225 133.845 110.597 135.414C111.114 136.007 112.656 137.714 113.317 136.836C113.419 136.853 113.531 136.812 113.562 136.692C113.819 135.762 113.597 134.964 113.272 134.08C112.76 132.7 112.25 131.266 111.616 129.932C110.956 128.535 109.245 127.625 108.553 129.542Z" fill="#5D53EA"/>
<path opacity="0.2" d="M108.221 131.094C107.436 133.28 108.893 135.397 110.265 136.966C110.782 137.559 112.324 139.266 112.985 138.388C113.087 138.405 113.199 138.364 113.23 138.244C113.487 137.314 113.265 136.516 112.94 135.632C112.428 134.252 111.918 132.818 111.284 131.484C110.624 130.087 108.913 129.177 108.221 131.094Z" fill="#222221"/>
<path d="M134.714 152.661C134.051 155.876 131.935 158.728 129.401 160.826C129.519 164.214 129.256 167.592 128.584 170.889C128.184 171.18 127.812 171.498 127.449 171.825C127.631 170.962 127.785 170.109 127.912 169.237C127.912 169.219 127.903 169.192 127.894 169.164C122.481 166.312 120.056 160.799 118.031 155.232C118.022 155.223 118.013 155.214 118.004 155.214C118.158 155.214 126.559 158.729 128.112 167.729C128.593 163.488 128.466 159.173 127.785 154.932C125.505 148.275 119.747 143.525 114.243 139.138C113.326 138.402 112.272 137.648 111.754 136.568C111.754 136.568 111.745 136.568 111.745 136.559C111.709 136.486 111.672 136.414 111.645 136.341C111.427 135.814 111.164 134.661 111.872 134.307C112.617 133.916 113.153 134.879 113.498 135.37C113.552 135.443 113.607 135.524 113.652 135.597C114.642 136.977 115.541 138.431 116.422 139.875C118.502 141.455 120.5 143.135 122.325 145.007C124.214 146.941 125.885 149.139 127.102 151.528C127.011 151.174 126.939 150.811 126.848 150.447C125.504 145.297 123.379 140.411 120.827 135.752C119.719 133.736 118.575 131.72 117.794 129.549C117.34 128.268 116.768 126.397 116.84 124.826C116.858 124.417 116.922 124.027 117.04 123.673C117.312 122.846 118.048 122.465 118.611 123.291C118.811 123.582 118.911 123.981 118.956 124.408V124.417C119.038 125.18 118.947 126.043 118.974 126.615C119.056 128.086 119.128 129.567 119.183 131.038C119.655 132.01 120.182 132.954 120.718 133.89C123.606 138.922 126.14 144.008 127.684 149.639C128.338 152.028 128.801 154.471 129.092 156.923C129.301 154.988 129.682 153.063 130.2 151.192C130.972 148.404 134.251 143.545 134.278 143.527C134.369 143.451 135.731 147.711 134.714 152.661Z" fill="white"/>
<g opacity="0.1">
<path d="M97.301 194.098C97.89 190.459 99.914 187.088 102.581 184.458C103.895 183.098 105.481 182.046 107.089 181.07C107.922 180.633 108.747 180.168 109.628 179.837L110.932 179.299L112.311 178.89C114.153 178.35 116.113 178.229 118.022 178.375L119.447 178.579C119.92 178.651 120.375 178.809 120.839 178.921L121.53 179.106L122.197 179.359C122.635 179.544 123.087 179.693 123.508 179.907C126.917 181.542 129.803 184.076 131.851 187.115C129.233 184.572 126.221 182.498 122.951 181.211C119.674 179.98 116.103 179.648 112.786 180.644C109.444 181.574 106.221 183.242 103.533 185.503C100.864 187.788 98.616 190.684 97.301 194.098Z" fill="#222221"/>
<path d="M148.637 168.886C146.018 168.51 143.419 168.41 140.866 168.58C138.319 168.774 135.814 169.253 133.486 170.184C131.147 171.087 129.016 172.453 127.126 174.143C125.264 175.868 123.657 177.904 122.188 180.114C122.973 177.581 124.314 175.189 126.119 173.146C127.033 172.135 128.07 171.229 129.189 170.432C130.327 169.662 131.55 169.017 132.822 168.495C135.39 167.507 138.14 167.075 140.841 167.169C143.534 167.26 146.214 167.783 148.637 168.886Z" fill="#222221"/>
<path d="M88.0071 181.069C89.1431 180.202 90.5251 179.695 91.9491 179.448C93.3771 179.206 94.8861 179.261 96.3151 179.659C97.7431 180.045 99.1001 180.756 100.17 181.753C100.748 182.201 101.175 182.804 101.621 183.358C102.031 183.945 102.35 184.594 102.635 185.234C102.026 184.835 101.541 184.362 100.982 183.981C100.419 183.607 99.9101 183.194 99.3301 182.896C98.2321 182.208 97.0461 181.751 95.8381 181.412C94.6261 181.078 93.3601 180.892 92.0541 180.857C90.7471 180.829 89.4141 180.906 88.0071 181.069Z" fill="#222221"/>
</g>
<g opacity="0.1">
<path d="M149.588 214.078C151.638 212.775 153.984 211.953 156.384 211.462C158.792 210.968 161.296 210.901 163.756 211.205C164.991 211.33 166.193 211.672 167.392 211.974C168.548 212.429 169.743 212.776 170.806 213.424C173.027 214.511 174.914 216.155 176.533 217.932C174.42 216.729 172.42 215.502 170.217 214.714C169.151 214.25 168.025 213.964 166.923 213.629C165.793 213.4 164.679 213.091 163.525 213.006C161.243 212.69 158.915 212.671 156.585 212.86C154.256 213.072 151.927 213.47 149.588 214.078Z" fill="#222221"/>
<path d="M168.059 227.984C169.356 224.143 171.9 220.69 175.148 218.122C178.364 215.472 182.407 213.916 186.499 213.255C190.599 212.592 194.947 213.052 198.773 214.72C200.696 215.535 202.434 216.721 203.978 218.077C205.501 219.456 206.848 221.04 207.786 222.84C206.515 221.269 205.037 219.908 203.42 218.772C201.81 217.633 200.078 216.682 198.242 216.034C196.398 215.426 194.515 214.921 192.572 214.826C192.093 214.761 191.607 214.759 191.122 214.759L189.668 214.744C188.701 214.853 187.727 214.886 186.768 215.05L185.33 215.305C185.091 215.349 184.849 215.384 184.612 215.436L183.911 215.633L182.507 216.025C182.046 216.176 181.601 216.372 181.142 216.532C180.212 216.83 179.365 217.313 178.48 217.719C177.652 218.226 176.774 218.665 175.992 219.254C172.775 221.473 170.039 224.469 168.059 227.984Z" fill="#222221"/>
<path d="M207.788 222.839C206.517 221.268 205.036 219.905 203.42 218.77C201.812 217.635 200.078 216.681 198.243 216.036C196.399 215.428 194.519 214.919 192.576 214.828C192.095 214.764 191.604 214.755 191.123 214.755L189.67 214.746C188.707 214.855 187.726 214.882 186.773 215.046L185.329 215.3C185.093 215.345 184.848 215.382 184.612 215.436L183.913 215.636L182.505 216.027C182.051 216.172 181.606 216.372 181.143 216.536C180.353 216.781 179.617 217.181 178.863 217.544C178.736 217.599 178.609 217.662 178.481 217.717C178.181 217.899 177.882 218.071 177.573 218.244C177.028 218.562 176.492 218.88 175.993 219.252C172.778 221.477 170.044 224.465 168.064 227.98C169.354 224.147 171.897 220.687 175.148 218.126C175.729 217.645 176.338 217.2 176.973 216.791C177.373 216.537 177.781 216.291 178.19 216.064C180.751 214.638 183.612 213.721 186.5 213.258C190.596 212.595 194.946 213.049 198.77 214.72C200.695 215.538 202.43 216.718 203.974 218.081C205.5 219.451 206.844 221.04 207.788 222.839Z" fill="#222221"/>
</g>
<path d="M153.644 186.731C155.871 188.582 158.219 190.297 160.669 191.827C161.671 192.455 162.965 193.472 164.284 194.021C165.044 194.337 165.812 194.495 166.529 194.332C166.862 194.349 167.246 194.225 167.662 193.888C167.738 193.822 167.786 193.745 167.811 193.666C169.106 192.852 169.729 191.297 170.337 189.857C171.56 186.996 172.49 184.005 173.099 180.945C173.32 179.83 173.785 178.403 173.458 177.262C173.252 176.569 172.878 176.437 172.441 175.988C171.419 174.939 171.574 173.828 170.91 172.62C170.566 172.007 170.022 171.367 169.242 171.391C167.387 171.429 166.96 174.945 166.634 176.195C165.945 178.784 165.475 181.432 165.23 184.101C165.021 186.412 164.845 188.956 165.068 191.341C163.349 187.296 160.911 183.502 158.134 180.15C157.12 178.926 155.507 176.925 153.68 177.226C152.941 177.348 152.925 177.892 152.405 178.186C151.305 178.805 150.414 177.811 149.324 178.135C145.263 179.346 152.481 185.769 153.644 186.731Z" fill="#5D53EA"/>
<path opacity="0.3" d="M153.548 186.341C155.775 188.192 158.123 189.907 160.573 191.437C161.575 192.065 162.869 193.082 164.188 193.631C164.948 193.947 165.716 194.105 166.433 193.942C166.766 193.959 167.15 193.835 167.566 193.498C167.642 193.432 167.69 193.355 167.715 193.276C169.01 192.462 169.633 190.907 170.241 189.467C171.464 186.606 172.394 183.615 173.003 180.555C173.224 179.44 173.689 178.013 173.362 176.872C173.156 176.179 172.782 176.047 172.345 175.598C171.323 174.549 171.478 173.438 170.814 172.23C170.47 171.617 169.926 170.977 169.146 171.001C167.291 171.039 166.864 174.555 166.538 175.805C165.849 178.394 165.379 181.042 165.134 183.711C164.925 186.022 164.749 188.566 164.972 190.951C163.253 186.906 160.815 183.112 158.038 179.76C157.024 178.536 155.411 176.535 153.584 176.836C152.845 176.958 152.829 177.502 152.309 177.796C151.209 178.415 150.318 177.421 149.228 177.745C145.167 178.956 152.385 185.379 153.548 186.341Z" fill="#5D53EA"/>
<path d="M158.648 173.826C160.366 179.7 162.442 185.457 164.064 191.361C164.106 191.503 164.355 191.444 164.323 191.298C163.193 185.955 161.302 180.823 159.692 175.615C158.871 172.975 158.21 170.432 158.061 167.669C157.966 165.835 158.15 164.181 157.163 162.603C157.006 162.352 156.609 162.234 156.387 162.582C155.359 164.196 156.962 166.997 157.756 168.812C157.899 170.503 158.15 172.137 158.648 173.826Z" fill="white"/>
<path d="M169.371 174.961C170.429 180.264 169.906 185.735 169.613 191.082C169.604 191.21 169.786 191.243 169.805 191.112C170.988 184.133 170.682 176.091 168.078 169.454C167.852 168.867 166.283 165.196 165.223 166.136C164.656 166.643 165.508 167.769 165.781 168.164C166.656 169.474 167.839 170.487 168.588 171.895C168.599 171.908 168.612 171.914 168.626 171.92C168.939 172.965 169.179 174.01 169.371 174.961Z" fill="white"/>
<path d="M149.534 173.22C149.503 175.638 150.252 178.13 151.142 180.35C153.103 185.184 156.39 189.339 159.996 193.047C160.08 193.134 160.228 192.988 160.151 192.904C156.767 189.034 153.461 185.026 151.508 180.212C151 178.963 150.583 177.672 150.297 176.351C150.274 176.258 150.249 176.149 150.225 176.039C150.248 176.025 150.264 176.007 150.263 175.974C150.315 174.396 150.588 173.107 150.967 171.587C151.14 170.918 151.376 169.76 150.884 169.635C149.591 169.73 149.544 172.329 149.534 173.22Z" fill="white"/>
<path d="M149.064 190.245C153.798 194.089 159.908 196.167 165.057 199.403C166.231 200.137 167.374 200.931 168.501 201.744C168.809 201.961 169.171 202.288 169.567 202.508C169.818 202.647 170.074 202.731 170.342 202.724C170.453 202.727 170.565 202.707 170.676 202.671C171.12 202.524 171.319 202.2 171.48 201.789C171.776 201.077 171.778 200.13 171.822 199.24C172.058 198.352 172.372 197.471 172.6 196.685C172.93 195.537 173.288 194.4 173.677 193.267C174.509 190.862 175.559 188.558 176.606 186.238C177.498 184.274 178.324 182.252 178.598 180.102C178.748 178.963 178.969 176.825 178.094 175.902C177.308 175.079 176.553 175.57 176.048 176.344C175.564 177.086 175.422 177.979 175.013 178.734C174.387 179.878 173.644 179.867 172.709 180.489C171.455 181.33 170.952 182.836 170.77 184.259C170.629 185.417 170.56 186.595 170.507 187.772C170.351 186.674 170.143 185.588 169.93 184.516C169.543 182.596 169.234 180.233 168.15 178.554C167.787 177.986 167.36 177.537 166.784 177.182C165.5 176.38 164.584 175.908 163.757 174.579C163.009 173.394 162.146 171.335 160.477 171.29C158.798 171.249 158.689 172.918 158.37 174.119C157.774 176.352 155.702 177.25 155.685 179.79C155.669 181.857 156.77 183.84 157.744 185.596C158.501 186.962 159.328 188.315 160.277 189.58C158.939 188.404 157.43 187.417 155.83 186.644C155.156 186.315 154.374 185.952 153.591 186.022C152.444 186.118 152.254 186.807 150.885 186.406C149.871 186.104 147.727 184.933 146.906 186.306C146.062 187.741 148.132 189.486 149.064 190.245Z" fill="#5D53EA"/>
<path opacity="0.1" d="M149.356 191.956C154.09 195.8 160.2 197.878 165.349 201.114C166.523 201.848 167.666 202.642 168.793 203.455C169.101 203.672 169.463 203.999 169.859 204.219C170.11 204.358 170.366 204.442 170.634 204.435C170.745 204.438 170.857 204.418 170.968 204.382C171.412 204.235 171.611 203.911 171.772 203.5C172.068 202.788 172.07 201.841 172.114 200.951C172.35 200.063 172.664 199.182 172.892 198.396C173.222 197.248 173.58 196.111 173.969 194.978C174.801 192.573 175.851 190.269 176.898 187.949C177.79 185.985 178.616 183.963 178.89 181.813C179.04 180.674 179.261 178.536 178.386 177.613C177.6 176.79 176.845 177.281 176.34 178.055C175.856 178.797 175.714 179.69 175.305 180.445C174.679 181.589 173.936 181.578 173.001 182.2C171.747 183.041 171.244 184.547 171.062 185.97C170.921 187.128 170.852 188.306 170.799 189.483C170.643 188.385 170.435 187.299 170.222 186.227C169.835 184.307 169.526 181.944 168.442 180.265C168.079 179.697 167.652 179.248 167.076 178.893C165.792 178.091 164.876 177.619 164.049 176.29C163.301 175.105 162.438 173.046 160.769 173.001C159.09 172.96 158.981 174.629 158.662 175.83C158.066 178.063 155.994 178.961 155.977 181.501C155.961 183.568 157.062 185.551 158.036 187.307C158.793 188.673 159.62 190.026 160.569 191.291C159.231 190.115 157.722 189.128 156.122 188.355C155.448 188.026 154.666 187.663 153.883 187.733C152.736 187.829 152.546 188.518 151.177 188.117C150.163 187.815 148.019 186.644 147.198 188.017C146.354 189.452 148.424 191.197 149.356 191.956Z" fill="#222221"/>
<path d="M174.778 185.809C174.816 185.824 174.793 185.884 174.754 185.869C174.716 185.854 174.739 185.794 174.778 185.809Z" fill="#F1D1C5"/>
<path d="M153.413 190.813C158.006 195.036 167.119 195.995 169.602 202.234C169.59 202.326 169.578 202.418 169.566 202.509C169.817 202.648 170.073 202.732 170.341 202.725C171.474 200.904 171.484 198.65 171.774 196.538C172.222 193.331 172.875 190.196 174.11 187.194C174.143 187.111 174.024 187.064 173.978 187.142C172.802 189.42 172.071 191.833 171.57 194.336C171.064 196.853 171.21 200.06 170.025 202.423C170.02 202.333 170.018 202.236 170.018 202.155C170.543 199.284 169.879 196.186 169.155 193.427C168.224 189.863 166.843 186.444 165.599 182.983C165.549 182.843 165.35 182.941 165.393 183.079C166.417 186.446 167.495 189.819 168.408 193.223C168.945 195.21 169.488 197.408 169.649 199.576C167.914 192.434 160.824 187.223 159.657 179.862C159.625 179.697 159.367 179.74 159.392 179.903C160.545 187.708 167.71 193.198 169.421 200.748C169.067 200.095 168.591 199.506 168.049 198.963C167.018 197.497 165.776 196.198 164.336 195.078C162.019 193.284 159.337 192.134 157.133 190.176C157.049 190.103 156.933 190.234 156.998 190.316C158.612 192.284 160.986 193.337 163.054 194.743C164.295 195.592 165.44 196.564 166.468 197.651C165.797 197.171 165.09 196.74 164.398 196.356C160.817 194.323 156.967 192.996 153.573 190.61C153.433 190.515 153.296 190.702 153.413 190.813Z" fill="white"/>
<path d="M175.839 181.867C175.884 182.746 175.62 183.408 175.283 184.196C175.253 184.265 175.147 184.224 175.174 184.153C175.443 183.451 175.51 182.616 175.613 181.873C175.63 181.75 175.832 181.732 175.839 181.867Z" fill="white"/>
<path d="M159.621 177.337C159.641 177.781 159.546 178.23 159.552 178.679C159.554 178.822 159.343 178.809 159.314 178.685C159.217 178.264 159.169 177.708 159.363 177.309C159.415 177.202 159.614 177.191 159.621 177.337Z" fill="white"/>
<path d="M151.674 188.851C151.858 189.016 152.082 189.168 152.237 189.359C152.289 189.423 152.234 189.534 152.148 189.519C151.873 189.473 151.644 189.27 151.475 189.054C151.379 188.93 151.549 188.739 151.674 188.851Z" fill="white"/>
<path d="M172.758 199.468C172.232 201.431 171.387 203.486 172.033 205.628C172.088 205.813 171.895 205.938 171.796 205.785C170.995 204.554 164.984 200.884 165.468 199.845C165.763 199.213 167.41 200.357 167.824 199.476C167.999 199.106 167.802 198.259 167.771 197.832C167.727 197.279 167.7 196.718 167.712 196.167C167.724 195.655 167.843 195.02 168.314 194.907C168.867 194.773 169.299 195.52 169.57 196.01C169.794 196.414 169.981 196.844 170.179 197.266C170.4 197.732 170.672 198.58 171.164 197.972C171.595 197.438 171.832 196.742 172.41 196.391C173.731 195.586 172.916 198.874 172.758 199.468Z" fill="white"/>
<path d="M178.189 216.064C177.78 216.291 177.372 216.536 176.972 216.791C176.954 216.737 176.927 216.691 176.908 216.637C175.582 213.604 173.984 210.697 172.63 207.673C171.277 204.649 170.541 201.742 169.987 198.5C169.978 198.464 170.023 198.455 170.032 198.482C171.049 204.068 174.682 209.199 177.252 214.158C177.581 214.784 177.899 215.42 178.189 216.064Z" fill="#EBEBEB"/>
<path d="M176.265 214.783C176.265 214.783 175.472 206.204 176.859 201.753C178.246 197.302 183.104 191.379 183.104 191.379C183.104 191.379 187.5 204.354 176.265 214.783Z" fill="white"/>
<path d="M299.783 350.072C301.617 350.681 353.967 350.529 355.962 349.263C356.715 348.79 357.139 341.158 357.388 331.93C357.444 329.936 357.484 327.885 357.516 325.787C357.556 323.312 357.588 320.805 357.604 318.37C357.668 307.437 357.516 297.809 357.516 297.809H323.435L323.451 318.37L323.459 325.787L323.635 331.93C323.635 331.93 303.619 340.957 301.585 342.583C299.559 344.201 297.957 349.471 299.783 350.072Z" fill="#F7A9A0"/>
<path d="M357.44 329.92C357.42 330.6 357.41 331.27 357.39 331.93C357.14 341.16 356.71 348.79 355.96 349.26C353.97 350.53 301.62 350.68 299.78 350.07C297.96 349.47 299.56 344.2 301.58 342.58C302.67 341.71 308.91 338.72 314.47 336.13C312.78 337.65 310.49 339.96 311.11 340.78C312.79 343 346.69 338.35 355.88 330.96C356.47 330.49 356.98 330.14 357.44 329.92Z" fill="#263238"/>
<path d="M368.883 152.575C368.883 152.575 359.672 243.675 359.456 244.829C359.424 244.981 359.36 246.735 359.272 249.595C358.775 265.278 357.55 314.176 357.55 314.176H319.969C319.969 314.176 322.42 256.259 323.83 242.747C325.624 225.51 336.934 152.576 336.934 152.576H368.883V152.575Z" fill="#37474F"/>
<path d="M354.974 248.04C356.134 228.302 357.861 208.597 360.202 188.964C361.521 177.895 363.109 166.865 364.688 155.831C364.702 155.736 364.853 155.739 364.839 155.835C361.931 175.473 359.87 195.264 358.096 215.034C356.324 234.78 355.085 254.567 354.276 274.375C353.818 285.599 353.472 296.827 353.11 308.054C353.101 308.321 352.688 308.312 352.695 308.044C353.224 288.035 353.8 268.023 354.974 248.04Z" fill="#263238"/>
<path d="M322.34 308.119C323.323 307.99 334.761 307.823 339.147 307.823C342.901 307.823 354.673 308.117 355.959 308.11C356.056 308.11 356.051 308.211 355.955 308.226C354.416 308.465 347.724 308.645 340.532 308.645C336.147 308.645 322.905 308.343 322.335 308.269C322.236 308.257 322.245 308.132 322.34 308.119Z" fill="#263238"/>
<path d="M368.883 152.575C368.883 152.575 359.672 243.675 359.456 244.829C359.424 244.981 359.36 246.735 359.272 249.595L341.555 152.576H368.883V152.575Z" fill="#263238"/>
<path d="M371.198 350.417C373.127 350.528 423.646 336.811 425.242 335.067C425.851 334.414 424.279 326.936 422.126 317.962C421.668 316.021 421.264 313.994 420.661 311.994C419.91 309.478 419.128 306.969 418.343 304.559C414.969 294.086 411.72 285.423 411.72 285.423L379.734 294.006L385.435 313.02L387.769 320.82L389.527 326.706C389.527 326.706 372.535 340.614 370.992 342.706C369.458 344.798 369.277 350.304 371.198 350.417Z" fill="#F7A9A0"/>
<path d="M425.243 335.068C423.649 336.812 373.131 350.532 371.194 350.416C369.277 350.303 369.463 344.8 370.992 342.711C371.931 341.437 378.54 335.825 383.602 331.611C382.144 333.327 379.857 336.265 380.642 337.033C382.578 338.943 414.048 329.994 422.979 321.541C424.664 328.851 425.761 334.504 425.243 335.068Z" fill="#263238"/>
<path d="M336.933 152.575C336.933 152.575 339.409 165.734 348.59 172.428C348.59 172.428 361.522 243.521 363.146 251.559C366.305 267.188 379.624 311.804 379.624 311.804L417.951 300.079C417.951 300.079 401.392 246.238 399.166 240.585C397.955 237.512 388.683 178.617 388.873 177.203C391.13 160.371 383.144 152.492 383.144 152.492L336.933 152.575Z" fill="#37474F"/>
<path d="M367.357 155.506C368.064 158.149 369.793 160.464 371.957 162.11C374.389 163.96 377.308 164.732 380.306 164.971C380.813 165.011 380.854 165.776 380.323 165.779C374.195 165.814 368.004 161.899 367.106 155.545C367.086 155.401 367.321 155.368 367.357 155.506Z" fill="#263238"/>
<path d="M342.71 168.26C344.963 169.063 347.015 170.366 349.04 171.619C351.144 172.92 353.087 174.446 355.117 175.852C355.195 175.906 355.13 176.034 355.043 175.984C352.914 174.758 350.696 173.695 348.589 172.429C346.542 171.199 344.418 170.009 342.618 168.426C342.547 168.363 342.617 168.226 342.71 168.26Z" fill="#263238"/>
<path d="M341.848 155.485C342.176 156.888 342.583 158.274 342.953 159.667C343.3 160.974 343.572 162.311 343.981 163.6C344.377 164.85 344.969 165.986 345.983 166.845C346.523 167.303 347.113 167.703 347.685 168.118C347.993 168.342 348.326 168.556 348.646 168.782C348.597 168.597 348.556 168.408 348.513 168.217C348.394 167.685 348.279 167.152 348.164 166.618C347.909 165.435 347.664 164.249 347.427 163.063C346.961 160.731 346.522 158.372 345.926 156.069C345.902 155.975 346.043 155.932 346.071 156.026C346.761 158.303 347.512 160.554 348.127 162.854C348.429 163.983 349.577 169.569 349.635 169.965C349.695 170.374 349.748 170.785 349.781 171.198C349.814 171.605 349.916 172.057 349.84 172.461C349.821 172.565 349.696 172.554 349.649 172.486C349.647 172.488 349.645 172.489 349.643 172.491C349.422 172.142 349.349 171.676 349.229 171.285C349.107 170.888 348.998 170.485 348.907 170.08C348.874 169.934 348.847 169.784 348.819 169.634C348.25 169.322 347.713 168.901 347.178 168.549C346.601 168.17 346.014 167.802 345.466 167.381C344.415 166.575 343.736 165.56 343.301 164.316C342.85 163.024 342.667 161.648 342.454 160.302C342.202 158.711 341.998 157.11 341.702 155.527C341.686 155.435 341.826 155.389 341.848 155.485Z" fill="#263238"/>
<path d="M380.933 303.742C381.836 303.332 392.729 299.84 396.925 298.562C400.516 297.468 411.863 294.32 413.091 293.939C413.184 293.91 413.209 294.008 413.121 294.051C411.719 294.728 405.369 296.85 398.489 298.946C394.294 300.224 381.539 303.792 380.972 303.888C380.873 303.904 380.845 303.782 380.933 303.742Z" fill="#263238"/>
<path d="M401.688 264.178C400.169 259.76 398.626 255.35 397.139 250.921C395.673 246.556 394.484 242.151 393.587 237.634C391.761 228.445 390.175 219.203 388.689 209.953C387.936 205.265 387.228 200.571 386.564 195.869C386.237 193.548 385.918 191.226 385.609 188.903C385.308 186.64 384.943 184.39 384.818 182.108C384.357 173.691 387.363 164.788 383.698 156.748C383.288 155.848 382.791 155.008 382.204 154.212C382.148 154.136 382.025 154.208 382.078 154.29C386.956 161.922 384.28 171.191 384.141 179.596C384.065 184.202 384.839 188.797 385.49 193.342C386.148 197.94 386.843 202.532 387.555 207.122C388.984 216.332 390.564 225.516 392.26 234.68C393.094 239.187 393.947 243.664 395.324 248.043C396.714 252.462 398.304 256.821 399.822 261.196C402.896 270.053 410.82 292.206 411.214 293.317C411.247 293.411 411.396 293.368 411.364 293.272C408.365 284.349 404.749 273.082 401.688 264.178Z" fill="#263238"/>
<path d="M352.419 103.718C343.618 113.012 322.253 123.338 315.203 123.338C307.155 123.338 293.656 112.186 283.497 102.789C281.267 100.726 295.011 80.5045 297.47 82.6265C303.625 87.9385 318.023 102.44 320.251 102.789C323.516 103.301 336.648 99.8105 347.057 96.8505C358.63 93.5595 356.887 99.0005 352.419 103.718Z" fill="#F7A9A0"/>
<path d="M290.692 104.805C293.565 104.8 300.902 87.3806 299.454 84.8126C299.179 84.3306 298.474 83.5546 297.47 82.6276C297.473 82.6186 297.473 82.6186 297.473 82.6186C297.473 82.6186 294.526 76.7416 293.813 70.9806C293.205 66.1426 292.857 58.8896 290.243 59.1196C286.431 59.4436 285.769 68.6676 285.712 73.9856C283.208 72.5396 280.917 71.5296 279.366 71.4306C274.218 71.1026 269.83 93.8986 273.707 97.4326C277.446 100.841 287.819 104.809 290.692 104.805Z" fill="#F7A9A0"/>
<path d="M268.092 101.811C268.092 101.811 273.782 102.822 276.579 99.8847C285.317 90.7447 275.41 62.1917 270.585 63.3517C265.768 64.5077 261.092 82.5807 261.092 82.5807L268.092 101.811ZM268.308 99.0247L262.857 84.0517C262.857 84.0517 266.722 68.3227 270.473 67.4237C274.224 66.5247 281.716 90.4097 274.911 97.5257C272.734 99.8097 268.308 99.0247 268.308 99.0247Z" fill="#37474F"/>
<path d="M220.522 87.5947L222.269 96.4607L214.689 100.871L220.522 87.5947Z" fill="#455A64"/>
<path d="M249.274 122.604L279 109.439L254.665 67.5767L235.667 76.1887L249.274 122.604Z" fill="#455A64"/>
<path d="M254.665 67.5765L256.293 63.0215L231.799 73.5575L235.667 76.1885L254.665 67.5765Z" fill="#37474F"/>
<path d="M242.486 99.4483L245.681 110.349L220.412 97.5203L221.877 94.4243L242.486 99.4483Z" fill="#37474F"/>
<path d="M217.999 91.6305C215.205 88.9315 209.167 88.7005 209.144 91.2565C209.131 92.6655 211.298 93.0735 213.939 92.0725C216.086 91.2575 217.999 91.6305 217.999 91.6305Z" fill="#EBEBEB"/>
<path d="M213.884 100.708C211.64 101.672 210.038 105.117 211.514 105.752C212.328 106.102 213.091 104.944 213.153 103.17C213.203 101.726 213.884 100.708 213.884 100.708Z" fill="#EBEBEB"/>
<path d="M214.736 95.9507C214.736 95.9507 210.405 94.8207 206.271 97.8157C203.12 100.099 201.317 104.768 204.255 105.993C205.422 106.48 207.056 105.485 208.332 103.629C210.268 100.813 211.367 97.1157 214.736 95.9507Z" fill="#EBEBEB"/>
<path d="M287.193 73.5217C287.956 76.0917 284.491 75.5197 284.491 75.5197C284.491 75.5197 289.281 77.5447 289.043 80.4997C288.806 83.3457 284.644 82.5077 284.345 82.4507C284.598 82.5597 288.95 84.5367 288.405 87.4797C287.836 90.5387 283.803 88.9797 283.542 88.8777C283.748 89.0557 286.431 91.4567 285.509 93.5987C283.922 97.2787 276.891 91.3287 273.671 91.7337C273.671 91.7337 273.734 97.2687 273.702 97.4297C273.702 97.4297 266.897 91.9057 266.594 87.5327C266.434 85.2277 268.551 84.6227 268.551 84.6227C268.551 84.6227 266.16 83.0837 266.516 80.7527C266.702 79.5567 268.781 78.7897 268.781 78.7897C268.781 78.7897 266.918 77.4777 267.364 75.4237C267.714 73.7837 269.745 73.2697 269.745 73.2697C269.745 73.2697 268.541 71.1797 269.443 69.6207C271.257 66.4737 285.555 68.0207 287.193 73.5217Z" fill="#F7A9A0"/>
<path d="M270.054 73.1408C270.006 73.1398 269.998 73.0718 270.047 73.0658C274.873 72.4268 280.371 73.2038 284.681 75.5318C284.822 75.6078 284.76 75.8708 284.588 75.8168C279.688 74.2668 275.216 73.2818 270.054 73.1408Z" fill="#263238"/>
<path d="M268.714 78.7546C268.658 78.7536 268.66 78.6606 268.719 78.6526C273.696 78.0216 279.865 79.0676 284.515 82.3346C284.675 82.4466 284.705 82.7076 284.512 82.5926C281.255 80.6546 273.361 78.8576 268.714 78.7546Z" fill="#263238"/>
<path d="M283.789 89.2179C279.208 86.2569 274.139 85.0629 268.757 84.5839C268.687 84.5779 268.703 84.4799 268.763 84.4689C271.46 83.9859 274.859 84.6479 277.46 85.3879C279.951 86.0959 282.058 87.2359 283.892 89.0589C283.963 89.1289 283.886 89.2819 283.789 89.2179Z" fill="#263238"/>
<path d="M284.573 75.4795C284.743 75.5715 284.422 75.7185 284.588 75.8155C285.289 76.2245 289.296 79.0455 288.758 80.7095C288.324 82.0415 286.233 82.3825 285.379 82.1985L283.23 81.7365L285.088 82.9185C285.899 83.4345 286.682 84.0925 287.278 84.8405C287.874 85.5845 288.269 86.4855 288.111 87.3345C287.963 88.2255 287.355 88.8765 286.469 88.9635C285.597 89.0855 284.586 88.8405 283.725 88.4845L281.319 87.4885L283.259 89.2095C283.785 89.6755 284.288 90.2405 284.679 90.8325C285.066 91.4265 285.36 92.0915 285.344 92.7285C285.331 93.3535 284.976 93.9775 284.426 94.2125C283.851 94.4675 283.091 94.4045 282.379 94.2745C280.927 93.9915 279.516 93.3925 278.088 92.8695C277.374 92.6015 276.658 92.3315 275.928 92.0955C275.202 91.8755 274.438 91.6355 273.671 91.7355C274.439 91.7145 275.153 92.0295 275.856 92.2935C276.558 92.5815 277.247 92.9025 277.938 93.2245C279.32 93.8685 280.719 94.5005 282.247 94.8885C283.009 95.0535 283.842 95.2065 284.704 94.8915C285.592 94.5595 286.119 93.6395 286.143 92.7545C286.171 91.8515 285.803 91.0595 285.381 90.3805C284.94 89.6965 284.431 89.1035 283.826 88.5495L283.359 89.2735C284.373 89.7025 285.421 89.9985 286.595 89.8725C287.172 89.8075 287.785 89.5475 288.217 89.0865C288.653 88.6255 288.884 88.0605 288.981 87.4775C289.176 86.2645 288.605 85.1385 287.927 84.3185C287.227 83.4765 286.409 82.8115 285.486 82.2425L285.195 82.9615C286.289 83.1585 288.668 83.0315 289.6 81.0505C290.43 78.2855 285.505 75.8595 284.573 75.4795Z" fill="#263238"/>
<path d="M284.491 75.5199C285.075 75.4869 285.64 75.4009 286.108 75.2189C286.578 75.0399 286.883 74.6869 286.947 74.2769C287.022 73.8659 286.843 73.3589 286.616 72.8759C286.372 72.3939 286.091 71.8999 285.781 71.4009C286.296 71.6919 286.753 72.0819 287.116 72.5689C287.469 73.0499 287.785 73.6609 287.688 74.4009C287.612 74.7629 287.442 75.0899 287.18 75.3389C286.911 75.5789 286.587 75.7239 286.27 75.7799C285.634 75.9029 285.024 75.7699 284.491 75.5199Z" fill="#263238"/>
<path d="M299.187 83.1934L290.183 115.448C290.183 115.448 307.084 124.009 314.243 124.157C321.402 124.305 341.994 114.784 353.158 103.675C357.466 99.3884 358.202 93.5284 347.626 96.1114C337.049 98.6944 322.584 101.646 321.477 101.425C320.369 101.204 299.187 83.1934 299.187 83.1934Z" fill="#EBEBEB"/>
<path d="M304.279 88.5692C303.469 90.8252 302.884 93.1922 302.235 95.4992C301.584 97.8162 300.966 100.141 300.374 102.475C299.19 107.139 298.127 111.837 297.11 116.541C297.089 116.64 297.233 116.675 297.262 116.579C298.626 111.963 299.948 107.33 301.148 102.669C301.748 100.338 302.322 98.0022 302.862 95.6572C303.4 93.3222 304.021 90.9662 304.393 88.5992C304.404 88.5222 304.304 88.4982 304.279 88.5692Z" fill="#A6A6A6"/>
<path d="M337.659 132.826L335.31 157.256C335.31 157.256 376.537 155.832 386.317 154.664C386.317 154.664 374.445 109.789 363.336 98.8436C357.78 93.3696 351.603 94.0986 347.849 98.2976C346.899 99.3596 335.741 115.699 334.777 121.78C333.938 127.145 337.659 132.826 337.659 132.826Z" fill="#5D53EA"/>
<path d="M359.303 65.1628C360.597 67.0738 370.397 71.7058 375.517 63.3408C380.559 55.1018 370.045 44.4478 361.786 50.3328C356.237 54.2858 356.555 61.1038 359.303 65.1628Z" fill="#263238"/>
<path d="M358.533 97.3197C358.263 98.1327 353.81 103.161 350.031 102.637C348.801 102.464 349.443 95.7067 349.443 95.7067L349.376 95.1967L348.449 88.0617L357.143 83.5397L358.394 82.9497C358.394 82.9497 358.519 84.9187 358.65 87.3717C358.657 87.4857 358.663 87.5997 358.669 87.7207C358.68 87.8597 358.692 87.9897 358.696 88.1197C358.72 88.4857 358.743 88.8597 358.759 89.2327C358.772 89.5167 358.786 89.7927 358.788 90.0907C358.798 90.3907 358.802 90.6807 358.812 90.9807C358.851 93.9367 358.642 96.9737 358.533 97.3197Z" fill="#F7A9A0"/>
<path d="M358.65 87.3717C356.14 92.7547 351.487 94.6187 349.376 95.1967L348.449 88.0617L357.143 83.5397L358.394 82.9497C358.394 82.9497 358.519 84.9187 358.65 87.3717Z" fill="#263238"/>
<path d="M339.947 76.0188C337.665 88.4388 344.846 91.2078 347.525 91.6968C349.957 92.1408 358.293 93.3438 361.846 81.2268C365.399 69.1088 360.346 64.1218 354.838 62.8128C349.331 61.5028 342.229 63.5988 339.947 76.0188Z" fill="#F7A9A0"/>
<path d="M342.163 74.071C342.461 74.07 342.736 74.019 343.031 73.987C343.364 73.951 343.632 73.9571 343.9 73.7331C344.044 73.6131 344.064 73.3381 343.961 73.1881C343.719 72.8381 343.301 72.78 342.899 72.807C342.462 72.836 342.133 72.97 341.814 73.268C341.503 73.556 341.769 74.073 342.163 74.071Z" fill="#263238"/>
<path d="M350.493 75.2988C350.202 75.2318 349.945 75.1208 349.665 75.0248C349.348 74.9158 349.085 74.8628 348.874 74.5848C348.761 74.4358 348.802 74.1638 348.936 74.0398C349.249 73.7518 349.67 73.7888 350.056 73.9038C350.475 74.0288 350.766 74.2328 351.012 74.5938C351.25 74.9428 350.876 75.3878 350.493 75.2988Z" fill="#263238"/>
<path d="M348.331 77.9097C348.342 77.8777 348.392 77.9587 348.386 77.9937C348.243 78.8417 348.222 79.8377 348.955 80.2247C348.978 80.2367 348.969 80.2787 348.941 80.2717C348.019 80.0107 348.06 78.6897 348.331 77.9097Z" fill="#263238"/>
<path d="M349.213 77.1229C350.598 77.2049 350.331 79.9679 349.049 79.8919C347.786 79.8169 348.052 77.0539 349.213 77.1229Z" fill="#263238"/>
<path d="M349.741 77.3218C349.967 77.5008 350.177 77.7998 350.465 77.8568C350.798 77.9228 351.081 77.6578 351.327 77.4008C351.353 77.3738 351.374 77.4008 351.371 77.4368C351.328 77.9668 351.072 78.4908 350.497 78.5148C349.972 78.5368 349.646 78.0328 349.565 77.4878C349.55 77.3858 349.65 77.2488 349.741 77.3218Z" fill="#263238"/>
<path d="M343.601 77.1319C343.597 77.0989 343.531 77.1659 343.528 77.2019C343.479 78.0609 343.279 79.0359 342.479 79.2519C342.454 79.2589 342.453 79.3019 342.482 79.2999C343.44 79.2509 343.693 77.9529 343.601 77.1319Z" fill="#263238"/>
<path d="M342.916 76.169C341.548 75.942 341.195 78.696 342.463 78.906C343.71 79.112 344.063 76.359 342.916 76.169Z" fill="#263238"/>
<path d="M342.318 76.2769C342.082 76.3949 341.833 76.6319 341.571 76.6159C341.267 76.5969 341.083 76.2709 340.927 75.9609C340.911 75.9289 340.886 75.9489 340.88 75.9849C340.798 76.5099 340.902 77.0799 341.395 77.2459C341.844 77.3969 342.241 76.9889 342.433 76.4809C342.469 76.3869 342.413 76.2289 342.318 76.2769Z" fill="#263238"/>
<path d="M347.871 84.5631C347.655 84.7541 347.436 85.0201 347.123 85.0301C346.823 85.0401 346.479 84.8871 346.211 84.7671C346.184 84.7551 346.155 84.7831 346.172 84.8091C346.378 85.1501 346.837 85.3801 347.238 85.3311C347.63 85.2831 347.84 84.9571 347.952 84.6061C347.967 84.5571 347.902 84.5351 347.871 84.5631Z" fill="#263238"/>
<path d="M344.632 81.087C344.632 81.087 344.317 82.345 344.252 82.947C344.246 83.003 344.389 83.046 344.592 83.08C344.601 83.084 344.606 83.089 344.615 83.083C345.66 83.364 346.771 83.113 347.511 82.315C347.559 82.261 347.489 82.19 347.43 82.222C346.573 82.719 345.679 82.774 344.735 82.688C344.71 82.517 345.346 80.552 345.251 80.535C344.925 80.471 344.252 80.625 343.85 80.697C344.429 78.058 345.427 75.534 345.965 72.898C345.982 72.804 345.849 72.76 345.812 72.842C344.579 75.414 343.846 78.4349 343.177 81.1449C343.091 81.4809 344.379 81.163 344.632 81.087Z" fill="#263238"/>
<path d="M344.691 82.6222C344.691 82.6222 345.095 83.5372 345.826 84.0002C346.095 84.1712 346.401 84.2842 346.752 84.2712C347.472 84.2462 347.63 83.6262 347.626 83.0652C347.624 82.6032 347.506 82.1802 347.506 82.1802C347.506 82.1802 346.303 82.8832 344.691 82.6222Z" fill="#263238"/>
<path d="M345.826 84.0001C346.095 84.1711 346.401 84.2841 346.752 84.2711C347.472 84.2461 347.63 83.6261 347.626 83.0651C346.88 82.9741 346.047 83.3061 345.826 84.0001Z" fill="#FF9ABB"/>
<path d="M361.73 81.3279C359.016 79.9329 358.993 77.0399 358.993 77.0399C355.616 75.4569 353.854 72.7259 353.671 72.4489C353.746 72.7089 354.287 74.5879 354.593 75.5359C346.723 73.7859 344.479 67.6429 344.479 67.6429C341.823 70.1189 341.255 71.7409 340.855 72.5459C340.855 72.5459 341.003 67.7179 343.572 64.5169C352.216 53.7469 361.728 65.2719 361.728 65.2719C361.728 65.2719 364.917 67.0839 365.353 70.3169C366.201 76.6109 361.73 81.3279 361.73 81.3279Z" fill="#263238"/>
<path d="M348.618 74.0212C349.855 74.7742 351.242 75.3012 352.63 75.6512C352.642 75.6542 352.645 75.6372 352.634 75.6332C350.424 74.9252 348.461 73.6881 346.94 71.9201C346.297 71.1731 345.75 70.3562 345.312 69.4732C344.854 68.5502 344.414 67.4551 344.362 66.4181C344.358 66.3391 344.235 66.3452 344.239 66.4242C344.294 67.5212 344.355 68.5322 344.761 69.5662C345.147 70.5482 345.718 71.4702 346.431 72.2482C347.069 72.9442 347.811 73.5302 348.618 74.0212Z" fill="#263238"/>
<path d="M359.697 80.7319C359.697 80.7319 362.815 77.0699 364.502 78.2179C366.189 79.3659 363.583 84.8569 361.419 85.4359C359.255 86.0139 358.68 84.0219 358.68 84.0219L359.697 80.7319Z" fill="#F7A9A0"/>
<path d="M363.716 79.7739C363.75 79.7739 363.752 79.8219 363.722 79.8309C362.2 80.2849 361.299 81.5699 360.623 82.9279C361.111 82.4269 361.732 82.1869 362.409 82.7749C362.445 82.8059 362.402 82.8619 362.362 82.8499C361.774 82.6639 361.331 82.7269 360.88 83.1689C360.56 83.4819 360.323 83.8939 360.08 84.2669C359.999 84.3919 359.769 84.2989 359.833 84.1529C359.838 84.1419 359.843 84.1309 359.848 84.1199C359.99 82.2469 361.692 79.7709 363.716 79.7739Z" fill="#263238"/>
<path d="M358.817 95.7389C358.817 95.7389 355.333 112.658 357.379 136.04C361.236 180.133 372.178 245.265 374.811 249.594C378.841 256.218 420.755 260.481 420.755 260.481C420.755 260.481 408.825 207.249 388.122 151.687C388.122 151.687 379.521 126.869 376.47 120.246C365.043 95.4479 358.817 95.7389 358.817 95.7389Z" fill="#EBEBEB"/>
<path d="M398.102 187.853C398.082 187.855 391.748 189.826 386.373 190.692C380.818 191.587 375.213 191.936 373.619 192.17C373.472 192.192 373.476 192.673 373.575 192.67C375.694 192.602 382.17 192.209 386.405 191.527C390.64 190.845 396.184 189.259 397.796 188.567C397.965 189.748 398.111 190.666 398.304 191.843C394.507 193.231 387.159 195.761 374.694 196.159C374.576 195.668 374.224 193.041 374 192.337C373.966 192.23 373.511 192.284 373.516 192.454C373.535 193.175 374.261 199.522 374.459 200.803C374.947 203.961 376.59 212.837 377.653 214.436C380.062 218.06 387.672 216.841 389.782 216.519C391.907 216.194 398.714 215.313 400.858 212.417C402.002 210.871 401.132 203.601 399.904 197.251C399.316 194.209 398.294 187.881 398.102 187.853ZM390.261 215.62C383.533 216.712 380.38 215.775 379.116 214.538C377.643 213.096 377.081 210.262 376.482 207.125C376.013 204.669 374.847 196.909 374.811 196.754C378.862 196.916 389.384 196.324 398.433 192.623C399.037 196.293 399.522 199.223 400.115 202.896C400.545 205.557 401.098 210.042 400 211.808C399.081 213.286 395.125 214.83 390.261 215.62Z" fill="#A6A6A6"/>
<path d="M387.334 189.976C388.585 193.624 387.214 199.46 390.081 199.37C392.635 199.289 393.193 195.153 393.193 195.153C393.193 195.153 394.071 200.015 396.794 199.146C399.517 198.277 399.201 193.621 399.201 193.621C399.201 193.621 399.75 197.702 402.405 196.64C405.059 195.579 405.512 191.572 405.512 191.572C405.512 191.572 406.47 192.631 408.008 191.038C410.208 188.759 409.274 181.977 407.945 178.552C406.617 175.126 399.22 163.566 398.054 161.817L375.994 170.156C375.994 170.156 375.545 177.338 375.763 181.007C375.98 184.676 380.053 196.567 383.071 195.756C386.09 194.945 383.071 186.597 382.779 184.392C382.487 182.187 382.948 181.743 383.852 182.635C384.446 183.221 386.781 188.362 387.334 189.976Z" fill="#F7A9A0"/>
<path d="M393.121 194.947C393.488 189.13 392.643 186.522 389.892 181.487C389.838 181.389 389.973 181.287 390.038 181.384C393.18 186.07 394.713 189.188 393.401 194.979C393.337 195.263 393.103 195.224 393.121 194.947Z" fill="#263238"/>
<path d="M399.126 193.865C398.98 187.79 398.088 184.953 395.595 179.468C395.56 179.391 395.687 179.323 395.73 179.398C398.626 184.575 400.083 187.721 399.432 193.81C399.402 194.085 399.133 194.142 399.126 193.865Z" fill="#263238"/>
<path d="M405.462 191.509C404.896 185.638 404.052 182.485 400.948 177.47C400.875 177.352 401.04 177.234 401.125 177.345C404.787 182.15 405.87 186.077 405.638 191.472C405.623 191.84 405.498 191.878 405.462 191.509Z" fill="#263238"/>
<path d="M366.571 102.905C379.652 120.661 396.844 158.145 399.094 164.135C400.621 168.201 377.428 176.448 376.805 173.533C376.007 169.8 363.755 122.983 360.485 105.633C358.681 96.0656 363.34 98.5196 366.571 102.905Z" fill="#F7A9A0"/>
<path d="M372.032 167.038L399.166 160.248C399.166 160.248 374.322 111.922 367.456 102.905C360.484 93.7498 359.205 98.9208 360.484 108.732C361.861 119.287 372.032 167.038 372.032 167.038Z" fill="#EBEBEB"/>
<path d="M395.446 157.257C393.598 157.483 391.756 157.967 389.937 158.363C388.108 158.761 386.281 159.165 384.456 159.582C380.81 160.416 377.16 161.276 373.563 162.302C373.466 162.33 373.501 162.471 373.6 162.454C377.287 161.807 380.948 160.989 384.595 160.148C386.378 159.737 388.158 159.313 389.937 158.883C391.785 158.436 393.694 158.063 395.494 157.447C395.613 157.406 395.57 157.242 395.446 157.257Z" fill="#A6A6A6"/>
<path d="M374.923 166.256C374.413 166.264 372.343 166.49 372.261 166.522C372.277 166.26 370.909 157.624 370.55 155.829C369.849 152.326 369.103 148.832 368.369 145.335C366.884 138.267 365.304 131.218 363.759 124.162C362.89 120.193 361.994 116.225 361.017 112.281C360.994 112.186 360.859 112.232 360.875 112.324C361.279 114.636 361.714 116.942 362.16 119.246C361.734 118.26 361.285 117.286 360.891 116.287C360.854 116.194 360.704 116.238 360.741 116.332C361.152 117.373 361.501 118.435 361.879 119.488C362.08 120.047 362.299 120.594 362.529 121.135C363.35 125.303 364.209 129.464 365.058 133.625C366.503 140.707 367.918 147.797 369.484 154.853C369.916 156.797 371.796 167.158 371.866 167.133C371.965 167.097 374.51 166.566 374.987 166.368C375.036 166.35 374.991 166.255 374.923 166.256Z" fill="#A6A6A6"/>
<path d="M349.152 97.0566C349.152 97.0566 341.701 106.878 339.506 137.794C337.138 171.142 332.079 243.403 331.685 245.961C331.291 248.52 320.86 254.501 320.86 254.501L336.932 132.941C336.932 132.941 333.965 126.956 334.465 122.535C335.13 116.654 346.274 98.3726 349.152 97.0566Z" fill="#EBEBEB"/>
<path d="M341.298 107.741C340.548 108.793 339.881 109.913 339.217 111.026C339.259 110.895 339.296 110.763 339.338 110.632C339.528 110.047 339.684 109.448 339.822 108.848C339.832 108.803 339.769 108.79 339.754 108.831C339.537 109.408 339.334 109.995 339.168 110.589C339.072 110.932 338.966 111.271 338.865 111.611C338.856 111.626 338.847 111.64 338.839 111.655C338.442 112.317 337.165 115.127 336.801 115.803C336.753 115.892 336.896 115.969 336.938 115.878C337.26 115.188 338.851 112.541 339.198 111.853C339.893 110.479 340.666 109.147 341.359 107.774C341.38 107.733 341.323 107.704 341.298 107.741Z" fill="#A6A6A6"/>
<path d="M349.152 97.0566C346.694 100.27 344.221 103.47 341.72 106.648L341.7 106.392L343.627 108.12L343.782 108.259L343.644 108.417L339.681 112.961L339.739 112.808C339.773 116.973 339.735 121.137 339.721 125.301C339.683 129.465 339.619 133.63 339.507 137.794C339.395 133.629 339.331 129.465 339.293 125.301C339.279 121.137 339.241 116.972 339.275 112.808L339.276 112.719L339.333 112.655L343.325 108.137L343.341 108.434L341.446 106.67L341.316 106.549L341.426 106.414C343.978 103.275 346.557 100.159 349.152 97.0566Z" fill="#A6A6A6"/>
<path d="M358.801 95.7056C360.139 99.5496 361.458 103.4 362.743 107.261L362.81 107.463L362.598 107.504L358.856 108.234L359.014 107.946L361.126 113.176L361.148 113.232L361.14 113.295C360.608 117.35 360.004 121.395 359.424 125.443C358.821 129.488 358.19 133.529 357.514 137.564C357.97 133.498 358.472 129.439 359.001 125.384C359.553 121.332 360.082 117.276 360.681 113.231L360.695 113.349L358.619 108.104L358.523 107.862L358.777 107.816L362.528 107.133L362.384 107.376C361.161 103.497 359.971 99.6046 358.801 95.7056Z" fill="#A6A6A6"/>
<path d="M422.711 379.497H305.448V394.424H422.711V379.497Z" fill="#455A64"/>
<path d="M401.358 350.418H300.134V365.345H401.358V350.418Z" fill="#455A64"/>
<path d="M305.745 406.085H297.146L306.024 365.345H323.5L305.745 406.085Z" fill="#455A64"/>
<path d="M306.026 365.341H323.497L319.059 375.533H303.807L306.026 365.341Z" fill="#37474F"/>
<path d="M395.747 406.085H404.345L395.468 365.345H377.991L395.747 406.085Z" fill="#455A64"/>
<path d="M397.688 375.533H382.427L377.989 365.341H395.469L397.688 375.533Z" fill="#37474F"/>
</svg>
