<svg width="200" height="141" viewBox="0 0 200 141" fill="none" xmlns="http://www.w3.org/2000/svg">
<mask id="path-1-inside-1_3_16" fill="white">
<path d="M0 70.3655C0 45.5127 20.1472 25.3655 45 25.3655H80V115.366H45C20.1472 115.366 0 95.2184 0 70.3655Z"/>
</mask>
<path d="M-30 70.3655C-30 28.9442 3.57864 -4.63446 45 -4.63446H80V55.3655H45C36.7157 55.3655 30 62.0813 30 70.3655H-30ZM80 145.366H45C3.57864 145.366 -30 111.787 -30 70.3655H30C30 78.6498 36.7157 85.3655 45 85.3655H80V145.366ZM45 145.366C3.57864 145.366 -30 111.787 -30 70.3655C-30 28.9442 3.57864 -4.63446 45 -4.63446V55.3655C36.7157 55.3655 30 62.0813 30 70.3655C30 78.6498 36.7157 85.3655 45 85.3655V145.366ZM80 25.3655V115.366V25.3655Z" fill="#6062F4" mask="url(#path-1-inside-1_3_16)"/>
<mask id="path-3-inside-2_3_16" fill="white">
<path d="M190 70.3655C190 45.5127 169.853 25.3655 145 25.3655H110V115.366H145C169.853 115.366 190 95.2184 190 70.3655Z"/>
</mask>
<path d="M220 70.3655C220 28.9442 186.421 -4.63446 145 -4.63446H110V55.3655H145C153.284 55.3655 160 62.0813 160 70.3655H220ZM110 145.366H145C186.421 145.366 220 111.787 220 70.3655H160C160 78.6498 153.284 85.3655 145 85.3655H110V145.366ZM145 145.366C186.421 145.366 220 111.787 220 70.3655C220 28.9442 186.421 -4.63446 145 -4.63446V55.3655C153.284 55.3655 160 62.0813 160 70.3655C160 78.6498 153.284 85.3655 145 85.3655V145.366ZM110 25.3655V115.366V25.3655Z" fill="#6062F4" mask="url(#path-3-inside-2_3_16)"/>
<rect width="120" height="30" rx="15" transform="matrix(0 1 1 0 80 10.3655)" fill="#D81B60"/>
<g filter="url(#filter0_d_3_16)">
<path fill-rule="evenodd" clip-rule="evenodd" d="M80 25.3655C80 17.0813 86.7157 10.3655 95 10.3655C103.284 10.3655 110 17.0813 110 25.3655V50.3655C110 53.127 112.239 55.3655 115 55.3655H145C153.284 55.3655 160 62.0813 160 70.3655C160 78.6498 153.284 85.3655 145 85.3655H115C112.239 85.3655 110 87.6041 110 90.3655V115.366C110 123.65 103.284 130.366 95 130.366C86.7157 130.366 80 123.65 80 115.366V90.3655C80 87.6041 77.7614 85.3655 75 85.3655H45C36.7157 85.3655 30 78.6498 30 70.3655C30 62.0813 36.7157 55.3655 45 55.3655H75C77.7614 55.3655 80 53.127 80 50.3655V25.3655Z" fill="#D81B60"/>
</g>
<defs>
<filter id="filter0_d_3_16" x="26" y="10.3655" width="138" height="128" filterUnits="userSpaceOnUse" color-interpolation-filters="sRGB">
<feFlood flood-opacity="0" result="BackgroundImageFix"/>
<feColorMatrix in="SourceAlpha" type="matrix" values="0 0 0 0 0 0 0 0 0 0 0 0 0 0 0 0 0 0 127 0" result="hardAlpha"/>
<feOffset dy="4"/>
<feGaussianBlur stdDeviation="2"/>
<feComposite in2="hardAlpha" operator="out"/>
<feColorMatrix type="matrix" values="0 0 0 0 0 0 0 0 0 0 0 0 0 0 0 0 0 0 0.25 0"/>
<feBlend mode="normal" in2="BackgroundImageFix" result="effect1_dropShadow_3_16"/>
<feBlend mode="normal" in="SourceGraphic" in2="effect1_dropShadow_3_16" result="shape"/>
</filter>
</defs>
</svg>
